  0
SECTION
  2
HEADER
  9
$ACADVER
  1
AC1015
  9
$ACADMAINTVER
 70
     6
  9
$DWGCODEPAGE
  3
ANSI_1252
  9
$INSBASE
 10
0.0
 20
0.0
 30
0.0
  9
$EXTMIN
 10
0.0
 20
0.0
 30
0.0
  9
$EXTMAX
 10
420.0
 20
297.0
 30
0.0
  9
$LIMMIN
 10
0.0
 20
0.0
  9
$LIMMAX
 10
420.0
 20
297.0
  9
$ORTHOMODE
 70
     0
  9
$REGENMODE
 70
     1
  9
$FILLMODE
 70
     1
  9
$QTEXTMODE
 70
     0
  9
$MIRRTEXT
 70
     1
  9
$LTSCALE
 40
1.0
  9
$ATTMODE
 70
     1
  9
$TEXTSIZE
 40
3.5
  9
$TRACEWID
 40
1.0
  9
$TEXTSTYLE
  7
Standard
  9
$CLAYER
  8
0
  9
$CELTYPE
  6
ByLayer
  9
$CECOLOR
 62
   256
  9
$CELTSCALE
 40
1.0
  9
$DISPSILH
 70
     0
  9
$DIMSCALE
 40
1.0
  9
$DIMASZ
 40
3.302
  9
$DIMEXO
 40
1.0
  9
$DIMDLI
 40
3.75
  9
$DIMRND
 40
0.0
  9
$DIMDLE
 40
0.0
  9
$DIMEXE
 40
1.0
  9
$DIMTP
 40
0.0
  9
$DIMTM
 40
0.0
  9
$DIMTXT
 40
3.5
  9
$DIMCEN
 40
2.5
  9
$DIMTSZ
 40
0.0
  9
$DIMTOL
 70
     0
  9
$DIMLIM
 70
     0
  9
$DIMTIH
 70
     1
  9
$DIMTOH
 70
     1
  9
$DIMSE1
 70
     0
  9
$DIMSE2
 70
     0
  9
$DIMTAD
 70
     1
  9
$DIMZIN
 70
     1
  9
$DIMBLK
  1

  9
$DIMASO
 70
     1
  9
$DIMSHO
 70
     1
  9
$DIMPOST
  1

  9
$DIMAPOST
  1

  9
$DIMALT
 70
     0
  9
$DIMALTD
 70
     3
  9
$DIMALTF
 40
0.0393700787
  9
$DIMLFAC
 40
1.0
  9
$DIMTOFL
 70
     1
  9
$DIMTVP
 40
0.0
  9
$DIMTIX
 70
     0
  9
$DIMSOXD
 70
     0
  9
$DIMSAH
 70
     0
  9
$DIMBLK1
  1

  9
$DIMBLK2
  1

  9
$DIMSTYLE
  2
ISO-25
  9
$DIMCLRD
 70
     0
  9
$DIMCLRE
 70
     0
  9
$DIMCLRT
 70
     0
  9
$DIMTFAC
 40
1.0
  9
$DIMGAP
 40
1.524
  9
$DIMJUST
 70
     0
  9
$DIMSD1
 70
     0
  9
$DIMSD2
 70
     0
  9
$DIMTOLJ
 70
     0
  9
$DIMTZIN
 70
     1
  9
$DIMALTZ
 70
     0
  9
$DIMALTTZ
 70
     0
  9
$DIMUPT
 70
     0
  9
$DIMDEC
 70
     2
  9
$DIMTDEC
 70
     2
  9
$DIMALTU
 70
     2
  9
$DIMALTTD
 70
     3
  9
$DIMTXSTY
  7
Standard
  9
$DIMAUNIT
 70
     0
  9
$DIMADEC
 70
     2
  9
$DIMALTRND
 40
0.0
  9
$DIMAZIN
 70
     0
  9
$DIMDSEP
 70
    44
  9
$DIMATFIT
 70
     3
  9
$DIMFRAC
 70
     0
  9
$DIMLDRBLK
  1

  9
$DIMLUNIT
 70
     2
  9
$DIMLWD
 70
    -2
  9
$DIMLWE
 70
    -2
  9
$DIMTMOVE
 70
     0
  9
$LUNITS
 70
     2
  9
$LUPREC
 70
     2
  9
$SKETCHINC
 40
1.0
  9
$FILLETRAD
 40
0.0
  9
$AUNITS
 70
     0
  9
$AUPREC
 70
     2
  9
$MENU
  1
.
  9
$ELEVATION
 40
0.0
  9
$PELEVATION
 40
0.0
  9
$THICKNESS
 40
0.0
  9
$LIMCHECK
 70
     0
  9
$CHAMFERA
 40
0.0
  9
$CHAMFERB
 40
0.0
  9
$CHAMFERC
 40
0.0
  9
$CHAMFERD
 40
0.0
  9
$SKPOLY
 70
     0
  9
$TDCREATE
 40
2460693.792061169
  9
$TDUCREATE
 40
2460693.750394502
  9
$TDUPDATE
 40
2460693.792061621
  9
$TDUUPDATE
 40
2460693.750394954
  9
$TDINDWG
 40
0.0000000116
  9
$TDUSRTIMER
 40
0.0000000116
  9
$USRTIMER
 70
     1
  9
$ANGBASE
 50
0.0
  9
$ANGDIR
 70
     0
  9
$PDMODE
 70
     0
  9
$PDSIZE
 40
-1.0
  9
$PLINEWID
 40
0.0
  9
$SPLFRAME
 70
     0
  9
$SPLINETYPE
 70
     6
  9
$SPLINESEGS
 70
     8
  9
$HANDSEED
  5
16F
  9
$SURFTAB1
 70
     6
  9
$SURFTAB2
 70
     6
  9
$SURFTYPE
 70
     6
  9
$SURFU
 70
     6
  9
$SURFV
 70
     6
  9
$UCSBASE
  2

  9
$UCSNAME
  2

  9
$UCSORG
 10
0.0
 20
0.0
 30
0.0
  9
$UCSXDIR
 10
1.0
 20
0.0
 30
0.0
  9
$UCSYDIR
 10
0.0
 20
1.0
 30
0.0
  9
$UCSORTHOREF
  2

  9
$UCSORTHOVIEW
 70
     0
  9
$UCSORGTOP
 10
0.0
 20
0.0
 30
0.0
  9
$UCSORGBOTTOM
 10
0.0
 20
0.0
 30
0.0
  9
$UCSORGLEFT
 10
0.0
 20
0.0
 30
0.0
  9
$UCSORGRIGHT
 10
0.0
 20
0.0
 30
0.0
  9
$UCSORGFRONT
 10
0.0
 20
0.0
 30
0.0
  9
$UCSORGBACK
 10
0.0
 20
0.0
 30
0.0
  9
$PUCSBASE
  2

  9
$PUCSNAME
  2

  9
$PUCSORG
 10
0.0
 20
0.0
 30
0.0
  9
$PUCSXDIR
 10
1.0
 20
0.0
 30
0.0
  9
$PUCSYDIR
 10
0.0
 20
1.0
 30
0.0
  9
$PUCSORTHOREF
  2

  9
$PUCSORTHOVIEW
 70
     0
  9
$PUCSORGTOP
 10
0.0
 20
0.0
 30
0.0
  9
$PUCSORGBOTTOM
 10
0.0
 20
0.0
 30
0.0
  9
$PUCSORGLEFT
 10
0.0
 20
0.0
 30
0.0
  9
$PUCSORGRIGHT
 10
0.0
 20
0.0
 30
0.0
  9
$PUCSORGFRONT
 10
0.0
 20
0.0
 30
0.0
  9
$PUCSORGBACK
 10
0.0
 20
0.0
 30
0.0
  9
$USERI1
 70
     0
  9
$USERI2
 70
     0
  9
$USERI3
 70
     0
  9
$USERI4
 70
     0
  9
$USERI5
 70
     0
  9
$USERR1
 40
0.0
  9
$USERR2
 40
0.0
  9
$USERR3
 40
0.0
  9
$USERR4
 40
0.0
  9
$USERR5
 40
0.0
  9
$WORLDVIEW
 70
     1
  9
$SHADEDGE
 70
     3
  9
$SHADEDIF
 70
    70
  9
$TILEMODE
 70
     1
  9
$MAXACTVP
 70
    64
  9
$PINSBASE
 10
0.0
 20
0.0
 30
0.0
  9
$PLIMCHECK
 70
     0
  9
$PEXTMIN
 10
1.0000000000E+20
 20
1.0000000000E+20
 30
1.0000000000E+20
  9
$PEXTMAX
 10
-1.0000000000E+20
 20
-1.0000000000E+20
 30
-1.0000000000E+20
  9
$PLIMMIN
 10
0.0
 20
0.0
  9
$PLIMMAX
 10
420.0
 20
297.0
  9
$UNITMODE
 70
     0
  9
$VISRETAIN
 70
     1
  9
$PLINEGEN
 70
     0
  9
$PSLTSCALE
 70
     1
  9
$TREEDEPTH
 70
  3020
  9
$CMLSTYLE
  2
Standard
  9
$CMLJUST
 70
     0
  9
$CMLSCALE
 40
20.0
  9
$PROXYGRAPHICS
 70
     1
  9
$MEASUREMENT
 70
     1
  9
$CELWEIGHT
370
    -1
  9
$ENDCAPS
280
     0
  9
$JOINSTYLE
280
     0
  9
$LWDISPLAY
290
     1
  9
$INSUNITS
 70
     4
  9
$HYPERLINKBASE
  1

  9
$STYLESHEET
  1

  9
$XEDIT
290
     1
  9
$CEPSNTYPE
380
     0
  9
$PSTYLEMODE
290
     1
  9
$FINGERPRINTGUID
  2
{7d41fe33-3c8e-4095-8422-9d652827fac2}
  9
$VERSIONGUID
  2
{FAEB1C32-E019-11D5-929B-00C0DF256EC4}
  9
$EXTNAMES
290
     1
  9
$PSVPSCALE
 40
0.0
  9
$OLESTARTUP
290
     0
  0
ENDSEC
  0
SECTION
  2
CLASSES
  0
CLASS
  1
ACDBDICTIONARYWDFLT
  2
AcDbDictionaryWithDefault
  3
ObjectDBX Classes
 90
        0
280
     0
281
     0
  0
CLASS
  1
VISUALSTYLE
  2
AcDbVisualStyle
  3
ObjectDBX Classes
 90
     4095
280
     0
281
     0
  0
CLASS
  1
MATERIAL
  2
AcDbMaterial
  3
ObjectDBX Classes
 90
     1153
280
     0
281
     0
  0
CLASS
  1
SCALE
  2
AcDbScale
  3
ObjectDBX Classes
 90
     1153
280
     0
281
     0
  0
CLASS
  1
TABLESTYLE
  2
AcDbTableStyle
  3
ObjectDBX Classes
 90
     4095
280
     0
281
     0
  0
CLASS
  1
MLEADERSTYLE
  2
AcDbMLeaderStyle
  3
ACDB_MLEADERSTYLE_CLASS
 90
     4095
280
     0
281
     0
  0
CLASS
  1
SUN
  2
AcDbSun
  3
SCENEOE
 90
     1153
280
     0
281
     0
  0
CLASS
  1
ACDBPLACEHOLDER
  2
AcDbPlaceHolder
  3
ObjectDBX Classes
 90
        0
280
     0
281
     0
  0
CLASS
  1
LAYOUT
  2
AcDbLayout
  3
ObjectDBX Classes
 90
        0
280
     0
281
     0
  0
ENDSEC
  0
SECTION
  2
TABLES
  0
TABLE
  2
VPORT
  5
8
330
0
100
AcDbSymbolTable
 70
     1
  0
VPORT
  5
29
330
8
100
AcDbSymbolTableRecord
100
AcDbViewportTableRecord
  2
*Active
 70
     0
 10
0.0
 20
0.0
 11
1.0
 21
1.0
 12
210.0
 22
148.5
 13
0.0
 23
0.0
 14
10.0
 24
10.0
 15
10.0
 25
10.0
 16
0.0
 26
0.0
 36
1.0
 17
0.0
 27
0.0
 37
0.0
 40
297.0
 41
1.4141414141
 42
50.0
 43
0.0
 44
0.0
 50
0.0
 51
0.0
 71
     0
 72
  2000
 73
     1
 74
     3
 75
     0
 76
     0
 77
     0
 78
     0
281
     0
 65
     1
110
0.0
120
0.0
130
0.0
111
1.0
121
0.0
131
0.0
112
0.0
122
1.0
132
0.0
 79
     0
146
0.0
  0
ENDTAB
  0
TABLE
  2
LTYPE
  5
5
330
0
100
AcDbSymbolTable
 70
     6
  0
LTYPE
  5
14
330
5
100
AcDbSymbolTableRecord
100
AcDbLinetypeTableRecord
  2
ByBlock
 70
     0
  3

 72
    65
 73
     0
 40
0.0
  0
LTYPE
  5
15
330
5
100
AcDbSymbolTableRecord
100
AcDbLinetypeTableRecord
  2
ByLayer
 70
     0
  3

 72
    65
 73
     0
 40
0.0
  0
LTYPE
  5
16
330
5
100
AcDbSymbolTableRecord
100
AcDbLinetypeTableRecord
  2
Continuous
 70
     0
  3
Solid line
 72
    65
 73
     0
 40
0.0
  0
LTYPE
  5
5E
330
5
100
AcDbSymbolTableRecord
100
AcDbLinetypeTableRecord
  2
HIDDEN
 70
     0
  3
Hidden __ __ __ __ __ __ __ __ __ __ __ __ __ __
 72
    65
 73
     2
 40
1.905
 49
1.27
 74
     0
 49
-0.635
 74
     0
  0
LTYPE
  5
5F
330
5
100
AcDbSymbolTableRecord
100
AcDbLinetypeTableRecord
  2
PHANTOM
 70
     0
  3
Phantom ______  __  __  ______  __  __  ______
 72
    65
 73
     6
 40
12.7
 49
6.35
 74
     0
 49
-1.27
 74
     0
 49
1.27
 74
     0
 49
-1.27
 74
     0
 49
1.27
 74
     0
 49
-1.27
 74
     0
  0
LTYPE
  5
60
330
5
100
AcDbSymbolTableRecord
100
AcDbLinetypeTableRecord
  2
CENTER
 70
     0
  3
Center ____ _ ____ _ ____ _ ____ _ ____ _ ____
 72
    65
 73
     4
 40
10.16
 49
6.35
 74
     0
 49
-1.27
 74
     0
 49
1.27
 74
     0
 49
-1.27
 74
     0
  0
LTYPE
  5
61
330
5
100
AcDbSymbolTableRecord
100
AcDbLinetypeTableRecord
  2
CENTERX2
 70
     0
  3
Center (2x) ________  __  ________  __  _____
 72
    65
 73
     4
 40
20.32
 49
12.7
 74
     0
 49
-2.54
 74
     0
 49
2.54
 74
     0
 49
-2.54
 74
     0
  0
LTYPE
  5
62
330
5
100
AcDbSymbolTableRecord
100
AcDbLinetypeTableRecord
  2
DOT2
 70
     0
  3
Dot (.5x) ........................................
 72
    65
 73
     2
 40
0.635
 49
0.0
 74
     0
 49
-0.635
 74
     0
  0
ENDTAB
  0
TABLE
  2
LAYER
  5
2
330
0
100
AcDbSymbolTable
 70
     2
  0
LAYER
  5
10
330
2
100
AcDbSymbolTableRecord
100
AcDbLayerTableRecord
  2
0
 70
     0
 62
     7
  6
Continuous
370
    -3
390
F
  0
LAYER
  5
63
330
2
100
AcDbSymbolTableRecord
100
AcDbLayerTableRecord
  2
FORMAT
 70
     0
 62
     7
  6
Continuous
370
    -3
390
F
  0
ENDTAB
  0
TABLE
  2
STYLE
  5
3
330
0
100
AcDbSymbolTable
 70
     4
  0
STYLE
  5
11
330
3
100
AcDbSymbolTableRecord
100
AcDbTextStyleTableRecord
  2
Standard
 70
     0
 40
0.0
 41
1.0
 50
0.0
 71
     0
 42
3.5
  3
txt
  4

  0
STYLE
  5
14A
330
3
100
AcDbSymbolTableRecord
100
AcDbTextStyleTableRecord
  2
SLDTEXTSTYLE0
 70
     0
 40
0.0
 41
0.6666666667
 50
0.0
 71
     0
 42
3.5
  3
TXT
  4

  0
STYLE
  5
14C
330
3
100
AcDbSymbolTableRecord
100
AcDbTextStyleTableRecord
  2
SLDTEXTSTYLE1
 70
     0
 40
0.0
 41
0.6458333333
 50
0.0
 71
     0
 42
3.5
  3
TXT
  4

  0
STYLE
  5
14F
330
3
100
AcDbSymbolTableRecord
100
AcDbTextStyleTableRecord
  2
SLDTEXTSTYLE2
 70
     0
 40
0.0
 41
0.6607142857
 50
0.0
 71
     0
 42
3.5
  3
TXT
  4

  0
ENDTAB
  0
TABLE
  2
VIEW
  5
6
330
0
100
AcDbSymbolTable
 70
     0
  0
ENDTAB
  0
TABLE
  2
UCS
  5
7
330
0
100
AcDbSymbolTable
 70
     0
  0
ENDTAB
  0
TABLE
  2
APPID
  5
9
330
0
100
AcDbSymbolTable
 70
     1
  0
APPID
  5
12
330
9
100
AcDbSymbolTableRecord
100
AcDbRegAppTableRecord
  2
ACAD
 70
     0
  0
ENDTAB
  0
TABLE
  2
DIMSTYLE
  5
A
330
0
100
AcDbSymbolTable
 70
     1
100
AcDbDimStyleTable
  0
DIMSTYLE
105
27
330
A
100
AcDbSymbolTableRecord
100
AcDbDimStyleTableRecord
  2
ISO-25
 70
     0
 41
2.5
 42
0.625
 43
3.75
 44
1.25
 73
     0
 74
     0
 77
     1
 78
     8
140
2.5
141
2.5
143
0.0393700787
147
0.625
171
     3
172
     1
178
     0
271
     2
272
     2
274
     3
278
    44
283
     0
284
     8
340
11
  0
ENDTAB
  0
TABLE
  2
BLOCK_RECORD
  5
1
330
0
100
AcDbSymbolTable
 70
     3
  0
BLOCK_RECORD
  5
1F
330
1
100
AcDbSymbolTableRecord
100
AcDbBlockTableRecord
  2
*Model_Space
340
22
  0
BLOCK_RECORD
  5
1B
330
1
100
AcDbSymbolTableRecord
100
AcDbBlockTableRecord
  2
*Paper_Space
340
1E
  0
BLOCK_RECORD
  5
23
330
1
100
AcDbSymbolTableRecord
100
AcDbBlockTableRecord
  2
*Paper_Space0
340
26
  0
BLOCK_RECORD
  5
156
330
1
100
AcDbSymbolTableRecord
100
AcDbBlockTableRecord
  2
SW_CENTERMARKSYMBOL_0
340
0
102
{BLKREFS
331
161
102
}
  0
BLOCK_RECORD
  5
162
330
1
100
AcDbSymbolTableRecord
100
AcDbBlockTableRecord
  2
SW_CENTERMARKSYMBOL_1
340
0
102
{BLKREFS
331
16D
102
}
  0
ENDTAB
  0
ENDSEC
  0
SECTION
  2
BLOCKS
  0
BLOCK
  5
20
330
1F
100
AcDbEntity
  8
0
100
AcDbBlockBegin
  2
*Model_Space
 70
     0
 10
0.0
 20
0.0
 30
0.0
  3
*Model_Space
  1

  0
ENDBLK
  5
21
330
1F
100
AcDbEntity
  8
0
100
AcDbBlockEnd
  0
BLOCK
  5
1C
330
1B
100
AcDbEntity
 67
     1
  8
0
100
AcDbBlockBegin
  2
*Paper_Space
 70
     0
 10
0.0
 20
0.0
 30
0.0
  3
*Paper_Space
  1

  0
ENDBLK
  5
1D
330
1B
100
AcDbEntity
 67
     1
  8
0
100
AcDbBlockEnd
  0
BLOCK
  5
24
330
23
100
AcDbEntity
  8
0
100
AcDbBlockBegin
  2
*Paper_Space0
 70
     0
 10
0.0
 20
0.0
 30
0.0
  3
*Paper_Space0
  1

  0
ENDBLK
  5
25
330
23
100
AcDbEntity
  8
0
100
AcDbBlockEnd
  0
BLOCK
  5
157
330
156
100
AcDbEntity
  8
0
100
AcDbBlockBegin
  2
SW_CENTERMARKSYMBOL_0
 70
     0
 10
0.0
 20
0.0
 30
0.0
  3
SW_CENTERMARKSYMBOL_0
  1

  0
LINE
  5
159
330
156
100
AcDbEntity
  8
0
  6
Continuous
 62
     0
370
    18
100
AcDbLine
 10
0.0
 20
0.0
 30
0.0
 11
0.0
 21
2.5
 31
0.0
  0
LINE
  5
15A
330
156
100
AcDbEntity
  8
0
  6
Continuous
 62
     0
370
    18
100
AcDbLine
 10
0.0
 20
0.0
 30
0.0
 11
-2.5
 21
0.0
 31
0.0
  0
LINE
  5
15B
330
156
100
AcDbEntity
  8
0
  6
Continuous
 62
     0
370
    18
100
AcDbLine
 10
0.0
 20
0.0
 30
0.0
 11
0.0
 21
-2.5
 31
0.0
  0
LINE
  5
15C
330
156
100
AcDbEntity
  8
0
  6
Continuous
 62
     0
370
    18
100
AcDbLine
 10
0.0
 20
0.0
 30
0.0
 11
2.5
 21
0.0
 31
0.0
  0
LINE
  5
15D
330
156
100
AcDbEntity
  8
0
  6
Continuous
 62
     0
370
    18
100
AcDbLine
 10
0.0
 20
2.5
 30
0.0
 11
0.0
 21
4.5
 31
0.0
  0
LINE
  5
15E
330
156
100
AcDbEntity
  8
0
  6
Continuous
 62
     0
370
    18
100
AcDbLine
 10
-2.5
 20
0.0
 30
0.0
 11
-4.5
 21
0.0
 31
0.0
  0
LINE
  5
15F
330
156
100
AcDbEntity
  8
0
  6
Continuous
 62
     0
370
    18
100
AcDbLine
 10
0.0
 20
-2.5
 30
0.0
 11
0.0
 21
-4.5
 31
0.0
  0
LINE
  5
160
330
156
100
AcDbEntity
  8
0
  6
Continuous
 62
     0
370
    18
100
AcDbLine
 10
2.5
 20
0.0
 30
0.0
 11
4.5
 21
0.0
 31
0.0
  0
ENDBLK
  5
158
330
156
100
AcDbEntity
  8
0
100
AcDbBlockEnd
  0
BLOCK
  5
163
330
162
100
AcDbEntity
  8
0
100
AcDbBlockBegin
  2
SW_CENTERMARKSYMBOL_1
 70
     0
 10
0.0
 20
0.0
 30
0.0
  3
SW_CENTERMARKSYMBOL_1
  1

  0
LINE
  5
165
330
162
100
AcDbEntity
  8
0
  6
Continuous
 62
     0
370
    18
100
AcDbLine
 10
0.0
 20
0.0
 30
0.0
 11
0.0
 21
2.5
 31
0.0
  0
LINE
  5
166
330
162
100
AcDbEntity
  8
0
  6
Continuous
 62
     0
370
    18
100
AcDbLine
 10
0.0
 20
0.0
 30
0.0
 11
-2.5
 21
0.0
 31
0.0
  0
LINE
  5
167
330
162
100
AcDbEntity
  8
0
  6
Continuous
 62
     0
370
    18
100
AcDbLine
 10
0.0
 20
0.0
 30
0.0
 11
0.0
 21
-2.5
 31
0.0
  0
LINE
  5
168
330
162
100
AcDbEntity
  8
0
  6
Continuous
 62
     0
370
    18
100
AcDbLine
 10
0.0
 20
0.0
 30
0.0
 11
2.5
 21
0.0
 31
0.0
  0
LINE
  5
169
330
162
100
AcDbEntity
  8
0
  6
Continuous
 62
     0
370
    18
100
AcDbLine
 10
0.0
 20
2.5
 30
0.0
 11
0.0
 21
4.5
 31
0.0
  0
LINE
  5
16A
330
162
100
AcDbEntity
  8
0
  6
Continuous
 62
     0
370
    18
100
AcDbLine
 10
-2.5
 20
0.0
 30
0.0
 11
-4.5
 21
0.0
 31
0.0
  0
LINE
  5
16B
330
162
100
AcDbEntity
  8
0
  6
Continuous
 62
     0
370
    18
100
AcDbLine
 10
0.0
 20
-2.5
 30
0.0
 11
0.0
 21
-4.5
 31
0.0
  0
LINE
  5
16C
330
162
100
AcDbEntity
  8
0
  6
Continuous
 62
     0
370
    18
100
AcDbLine
 10
2.5
 20
0.0
 30
0.0
 11
4.5
 21
0.0
 31
0.0
  0
ENDBLK
  5
164
330
162
100
AcDbEntity
  8
0
100
AcDbBlockEnd
  0
ENDSEC
  0
SECTION
  2
ENTITIES
  0
CIRCLE
  5
64
330
1F
100
AcDbEntity
  8
0
  6
Continuous
 62
     7
370
    25
100
AcDbCircle
 10
220.2878688849
 20
253.4077010377
 30
0.0
 40
2.0
  0
ARC
  5
65
330
1F
100
AcDbEntity
  8
0
  6
Continuous
 62
     7
370
    25
100
AcDbCircle
 10
261.5002578653
 20
171.6293696863
 30
0.0
 40
2.500000000000028
100
AcDbArc
 50
90.0
 51
270.0
  0
LINE
  5
66
330
1F
100
AcDbEntity
  8
0
  6
Continuous
 62
     7
370
    25
100
AcDbLine
 10
289.5002578653
 20
169.1293696863
 30
0.0
 11
261.5002578653
 21
169.1293696863
 31
0.0
  0
ARC
  5
67
330
1F
100
AcDbEntity
  8
0
  6
Continuous
 62
     7
370
    25
100
AcDbCircle
 10
289.5002578653
 20
171.6293696863
 30
0.0
 40
2.500000000000028
100
AcDbArc
 50
270.0
 51
90.0
  0
LINE
  5
68
330
1F
100
AcDbEntity
  8
0
  6
Continuous
 62
     7
370
    25
100
AcDbLine
 10
261.5002578653
 20
174.1293696863
 30
0.0
 11
289.5002578653
 21
174.1293696863
 31
0.0
  0
ARC
  5
69
330
1F
100
AcDbEntity
  8
0
  6
Continuous
 62
     7
370
    25
100
AcDbCircle
 10
261.5002578653
 20
161.6293696863
 30
0.0
 40
2.5
100
AcDbArc
 50
90.0
 51
270.0
  0
LINE
  5
6A
330
1F
100
AcDbEntity
  8
0
  6
Continuous
 62
     7
370
    25
100
AcDbLine
 10
289.5002578653
 20
159.1293696863
 30
0.0
 11
261.5002578653
 21
159.1293696863
 31
0.0
  0
ARC
  5
6B
330
1F
100
AcDbEntity
  8
0
  6
Continuous
 62
     7
370
    25
100
AcDbCircle
 10
289.5002578653
 20
161.6293696863
 30
0.0
 40
2.5
100
AcDbArc
 50
270.0
 51
90.0
  0
LINE
  5
6C
330
1F
100
AcDbEntity
  8
0
  6
Continuous
 62
     7
370
    25
100
AcDbLine
 10
261.5002578653
 20
164.1293696863
 30
0.0
 11
289.5002578653
 21
164.1293696863
 31
0.0
  0
ARC
  5
6D
330
1F
100
AcDbEntity
  8
0
  6
Continuous
 62
     7
370
    25
100
AcDbCircle
 10
261.5002578653
 20
151.6293696863
 30
0.0
 40
2.5
100
AcDbArc
 50
90.0
 51
270.0
  0
LINE
  5
6E
330
1F
100
AcDbEntity
  8
0
  6
Continuous
 62
     7
370
    25
100
AcDbLine
 10
289.5002578653
 20
149.1293696863
 30
0.0
 11
261.5002578653
 21
149.1293696863
 31
0.0
  0
ARC
  5
6F
330
1F
100
AcDbEntity
  8
0
  6
Continuous
 62
     7
370
    25
100
AcDbCircle
 10
289.5002578653
 20
151.6293696863
 30
0.0
 40
2.5
100
AcDbArc
 50
270.0
 51
90.0
  0
LINE
  5
70
330
1F
100
AcDbEntity
  8
0
  6
Continuous
 62
     7
370
    25
100
AcDbLine
 10
261.5002578653
 20
154.1293696863
 30
0.0
 11
289.5002578653
 21
154.1293696863
 31
0.0
  0
ARC
  5
71
330
1F
100
AcDbEntity
  8
0
  6
Continuous
 62
     7
370
    25
100
AcDbCircle
 10
261.5002578653
 20
141.6293696863
 30
0.0
 40
2.5
100
AcDbArc
 50
90.0
 51
270.0
  0
LINE
  5
72
330
1F
100
AcDbEntity
  8
0
  6
Continuous
 62
     7
370
    25
100
AcDbLine
 10
289.5002578653
 20
139.1293696863
 30
0.0
 11
261.5002578653
 21
139.1293696863
 31
0.0
  0
ARC
  5
73
330
1F
100
AcDbEntity
  8
0
  6
Continuous
 62
     7
370
    25
100
AcDbCircle
 10
289.5002578653
 20
141.6293696863
 30
0.0
 40
2.5
100
AcDbArc
 50
270.0
 51
90.0
  0
LINE
  5
74
330
1F
100
AcDbEntity
  8
0
  6
Continuous
 62
     7
370
    25
100
AcDbLine
 10
261.5002578653
 20
144.1293696863
 30
0.0
 11
289.5002578653
 21
144.1293696863
 31
0.0
  0
ARC
  5
75
330
1F
100
AcDbEntity
  8
0
  6
Continuous
 62
     7
370
    25
100
AcDbCircle
 10
261.5002578653
 20
131.6293696863
 30
0.0
 40
2.5
100
AcDbArc
 50
90.0
 51
270.0
  0
LINE
  5
76
330
1F
100
AcDbEntity
  8
0
  6
Continuous
 62
     7
370
    25
100
AcDbLine
 10
289.5002578653
 20
129.1293696863
 30
0.0
 11
261.5002578653
 21
129.1293696863
 31
0.0
  0
ARC
  5
77
330
1F
100
AcDbEntity
  8
0
  6
Continuous
 62
     7
370
    25
100
AcDbCircle
 10
289.5002578653
 20
131.6293696863
 30
0.0
 40
2.5
100
AcDbArc
 50
270.0
 51
90.0
  0
LINE
  5
78
330
1F
100
AcDbEntity
  8
0
  6
Continuous
 62
     7
370
    25
100
AcDbLine
 10
261.5002578653
 20
134.1293696863
 30
0.0
 11
289.5002578653
 21
134.1293696863
 31
0.0
  0
LINE
  5
79
330
1F
100
AcDbEntity
  8
0
  6
Continuous
 62
     7
370
    25
100
AcDbLine
 10
151.0754799045
 20
129.1293696863
 30
0.0
 11
179.0754799045
 21
129.1293696863
 31
0.0
  0
ARC
  5
7A
330
1F
100
AcDbEntity
  8
0
  6
Continuous
 62
     7
370
    25
100
AcDbCircle
 10
179.0754799045
 20
131.6293696863
 30
0.0
 40
2.5
100
AcDbArc
 50
270.0
 51
90.0
  0
LINE
  5
7B
330
1F
100
AcDbEntity
  8
0
  6
Continuous
 62
     7
370
    25
100
AcDbLine
 10
179.0754799045
 20
134.1293696863
 30
0.0
 11
151.0754799045
 21
134.1293696863
 31
0.0
  0
ARC
  5
7C
330
1F
100
AcDbEntity
  8
0
  6
Continuous
 62
     7
370
    25
100
AcDbCircle
 10
151.0754799045
 20
131.6293696863
 30
0.0
 40
2.5
100
AcDbArc
 50
90.0
 51
270.0
  0
LINE
  5
7D
330
1F
100
AcDbEntity
  8
0
  6
Continuous
 62
     7
370
    25
100
AcDbLine
 10
151.0754799045
 20
139.1293696863
 30
0.0
 11
179.0754799045
 21
139.1293696863
 31
0.0
  0
ARC
  5
7E
330
1F
100
AcDbEntity
  8
0
  6
Continuous
 62
     7
370
    25
100
AcDbCircle
 10
179.0754799045
 20
141.6293696863
 30
0.0
 40
2.5
100
AcDbArc
 50
270.0
 51
90.0
  0
LINE
  5
7F
330
1F
100
AcDbEntity
  8
0
  6
Continuous
 62
     7
370
    25
100
AcDbLine
 10
179.0754799045
 20
144.1293696863
 30
0.0
 11
151.0754799045
 21
144.1293696863
 31
0.0
  0
ARC
  5
80
330
1F
100
AcDbEntity
  8
0
  6
Continuous
 62
     7
370
    25
100
AcDbCircle
 10
151.0754799045
 20
141.6293696863
 30
0.0
 40
2.5
100
AcDbArc
 50
90.0
 51
270.0
  0
LINE
  5
81
330
1F
100
AcDbEntity
  8
0
  6
Continuous
 62
     7
370
    25
100
AcDbLine
 10
151.0754799045
 20
149.1293696863
 30
0.0
 11
179.0754799045
 21
149.1293696863
 31
0.0
  0
ARC
  5
82
330
1F
100
AcDbEntity
  8
0
  6
Continuous
 62
     7
370
    25
100
AcDbCircle
 10
179.0754799045
 20
151.6293696863
 30
0.0
 40
2.5
100
AcDbArc
 50
270.0
 51
90.0
  0
LINE
  5
83
330
1F
100
AcDbEntity
  8
0
  6
Continuous
 62
     7
370
    25
100
AcDbLine
 10
179.0754799045
 20
154.1293696863
 30
0.0
 11
151.0754799045
 21
154.1293696863
 31
0.0
  0
ARC
  5
84
330
1F
100
AcDbEntity
  8
0
  6
Continuous
 62
     7
370
    25
100
AcDbCircle
 10
151.0754799045
 20
151.6293696863
 30
0.0
 40
2.5
100
AcDbArc
 50
90.0
 51
270.0
  0
LINE
  5
85
330
1F
100
AcDbEntity
  8
0
  6
Continuous
 62
     7
370
    25
100
AcDbLine
 10
151.0754799045
 20
159.1293696863
 30
0.0
 11
179.0754799045
 21
159.1293696863
 31
0.0
  0
ARC
  5
86
330
1F
100
AcDbEntity
  8
0
  6
Continuous
 62
     7
370
    25
100
AcDbCircle
 10
179.0754799045
 20
161.6293696863
 30
0.0
 40
2.5
100
AcDbArc
 50
270.0
 51
90.0
  0
LINE
  5
87
330
1F
100
AcDbEntity
  8
0
  6
Continuous
 62
     7
370
    25
100
AcDbLine
 10
179.0754799045
 20
164.1293696863
 30
0.0
 11
151.0754799045
 21
164.1293696863
 31
0.0
  0
ARC
  5
88
330
1F
100
AcDbEntity
  8
0
  6
Continuous
 62
     7
370
    25
100
AcDbCircle
 10
151.0754799045
 20
161.6293696863
 30
0.0
 40
2.5
100
AcDbArc
 50
90.0
 51
270.0
  0
LINE
  5
89
330
1F
100
AcDbEntity
  8
0
  6
Continuous
 62
     7
370
    25
100
AcDbLine
 10
151.0754799045
 20
169.1293696863
 30
0.0
 11
179.0754799045
 21
169.1293696863
 31
0.0
  0
ARC
  5
8A
330
1F
100
AcDbEntity
  8
0
  6
Continuous
 62
     7
370
    25
100
AcDbCircle
 10
179.0754799045
 20
171.6293696863
 30
0.0
 40
2.500000000000028
100
AcDbArc
 50
270.0
 51
90.0
  0
LINE
  5
8B
330
1F
100
AcDbEntity
  8
0
  6
Continuous
 62
     7
370
    25
100
AcDbLine
 10
179.0754799045
 20
174.1293696863
 30
0.0
 11
151.0754799045
 21
174.1293696863
 31
0.0
  0
ARC
  5
8C
330
1F
100
AcDbEntity
  8
0
  6
Continuous
 62
     7
370
    25
100
AcDbCircle
 10
151.0754799045
 20
171.6293696863
 30
0.0
 40
2.500000000000028
100
AcDbArc
 50
90.0
 51
270.0
  0
CIRCLE
  5
8D
330
1F
100
AcDbEntity
  8
0
  6
Continuous
 62
     7
370
    25
100
AcDbCircle
 10
220.2878688849
 20
46.5581451162
 30
0.0
 40
2.0
  0
LINE
  5
8E
330
1F
100
AcDbEntity
  8
0
  6
Continuous
 62
     7
370
    25
100
AcDbLine
 10
215.5181909193
 20
150.9829230769
 30
0.0
 11
210.9070526449
 21
150.9829230769
 31
0.0
  0
LINE
  5
8F
330
1F
100
AcDbEntity
  8
0
  6
Continuous
 62
     7
370
    25
100
AcDbLine
 10
212.9475233273
 20
155.9090550721
 30
0.0
 11
216.2080904702
 21
152.6484879293
 31
0.0
  0
LINE
  5
90
330
1F
100
AcDbEntity
  8
0
  6
Continuous
 62
     7
370
    25
100
AcDbLine
 10
137.0754799045
 20
110.8364764675
 30
0.0
 11
137.0754799045
 21
189.1293696863
 31
0.0
  0
LINE
  5
91
330
1F
100
AcDbEntity
  8
0
  6
Continuous
 62
     7
370
    25
100
AcDbLine
 10
137.0754799045
 20
189.1293696863
 30
0.0
 11
150.0754799045
 21
189.1293696863
 31
0.0
  0
LINE
  5
92
330
1F
100
AcDbEntity
  8
0
  6
Continuous
 62
     7
370
    25
100
AcDbLine
 10
150.0754799045
 20
189.1293696863
 30
0.0
 11
150.0754799045
 21
183.1293696863
 31
0.0
  0
LINE
  5
93
330
1F
100
AcDbEntity
  8
0
  6
Continuous
 62
     7
370
    25
100
AcDbLine
 10
150.0754799045
 20
183.1293696863
 30
0.0
 11
152.0754799045
 21
183.1293696863
 31
0.0
  0
LINE
  5
94
330
1F
100
AcDbEntity
  8
0
  6
Continuous
 62
     7
370
    25
100
AcDbLine
 10
152.0754799045
 20
192.8417586667
 30
0.0
 11
152.0754799045
 21
183.1293696863
 31
0.0
  0
ARC
  5
95
330
1F
100
AcDbEntity
  8
0
  6
Continuous
 62
     7
370
    25
100
AcDbCircle
 10
160.0754799045
 20
192.8417586667
 30
0.0
 40
8.0
100
AcDbArc
 50
90.0
 51
180.0
  0
LINE
  5
96
330
1F
100
AcDbEntity
  8
0
  6
Continuous
 62
     7
370
    25
100
AcDbLine
 10
174.0754799045
 20
200.8417586667
 30
0.0
 11
160.0754799045
 21
200.8417586667
 31
0.0
  0
ARC
  5
97
330
1F
100
AcDbEntity
  8
0
  6
Continuous
 62
     7
370
    25
100
AcDbCircle
 10
174.0754799045
 20
192.8417586667
 30
0.0
 40
8.0
100
AcDbArc
 50
0.0
 51
90.0
  0
LINE
  5
98
330
1F
100
AcDbEntity
  8
0
  6
Continuous
 62
     7
370
    25
100
AcDbLine
 10
182.0754799045
 20
183.1293696863
 30
0.0
 11
182.0754799045
 21
192.8417586667
 31
0.0
  0
LINE
  5
99
330
1F
100
AcDbEntity
  8
0
  6
Continuous
 62
     7
370
    25
100
AcDbLine
 10
182.0754799045
 20
183.1293696863
 30
0.0
 11
184.0754799045
 21
183.1293696863
 31
0.0
  0
LINE
  5
9A
330
1F
100
AcDbEntity
  8
0
  6
Continuous
 62
     7
370
    25
100
AcDbLine
 10
184.0754799045
 20
183.1293696863
 30
0.0
 11
184.0754799045
 21
189.1293696863
 31
0.0
  0
LINE
  5
9B
330
1F
100
AcDbEntity
  8
0
  6
Continuous
 62
     7
370
    25
100
AcDbLine
 10
184.0754799045
 20
189.1293696863
 30
0.0
 11
196.1414222755
 21
189.1293696863
 31
0.0
  0
LINE
  5
9C
330
1F
100
AcDbEntity
  8
0
  6
Continuous
 62
     7
370
    25
100
AcDbLine
 10
196.1414222755
 20
189.1293696863
 30
0.0
 11
196.1414222755
 21
248.1953120573
 31
0.0
  0
LINE
  5
9D
330
1F
100
AcDbEntity
  8
0
  6
Continuous
 62
     7
370
    25
100
AcDbLine
 10
196.1414222755
 20
248.1953120573
 30
0.0
 11
210.7878688849
 21
248.1953120573
 31
0.0
  0
LINE
  5
9E
330
1F
100
AcDbEntity
  8
0
  6
Continuous
 62
     7
370
    25
100
AcDbLine
 10
210.7878688849
 20
242.1953120573
 30
0.0
 11
210.7878688849
 21
248.1953120573
 31
0.0
  0
LINE
  5
9F
330
1F
100
AcDbEntity
  8
0
  6
Continuous
 62
     7
370
    25
100
AcDbLine
 10
212.7878688849
 20
242.1953120573
 30
0.0
 11
210.7878688849
 21
242.1953120573
 31
0.0
  0
LINE
  5
A0
330
1F
100
AcDbEntity
  8
0
  6
Continuous
 62
     7
370
    25
100
AcDbLine
 10
212.7878688849
 20
256.9077010377
 30
0.0
 11
212.7878688849
 21
242.1953120573
 31
0.0
  0
ARC
  5
A1
330
1F
100
AcDbEntity
  8
0
  6
Continuous
 62
     7
370
    25
100
AcDbCircle
 10
217.7878688849
 20
256.9077010377
 30
0.0
 40
5.0
100
AcDbArc
 50
90.0
 51
180.0
  0
LINE
  5
A2
330
1F
100
AcDbEntity
  8
0
  6
Continuous
 62
     7
370
    25
100
AcDbLine
 10
222.7878688849
 20
261.9077010377
 30
0.0
 11
217.7878688849
 21
261.9077010377
 31
0.0
  0
ARC
  5
A3
330
1F
100
AcDbEntity
  8
0
  6
Continuous
 62
     7
370
    25
100
AcDbCircle
 10
222.7878688849
 20
256.9077010377
 30
0.0
 40
5.0
100
AcDbArc
 50
0.0
 51
90.0
  0
LINE
  5
A4
330
1F
100
AcDbEntity
  8
0
  6
Continuous
 62
     7
370
    25
100
AcDbLine
 10
227.7878688849
 20
242.1953120573
 30
0.0
 11
227.7878688849
 21
256.9077010377
 31
0.0
  0
LINE
  5
A5
330
1F
100
AcDbEntity
  8
0
  6
Continuous
 62
     7
370
    25
100
AcDbLine
 10
229.7878688849
 20
242.1953120573
 30
0.0
 11
227.7878688849
 21
242.1953120573
 31
0.0
  0
LINE
  5
A6
330
1F
100
AcDbEntity
  8
0
  6
Continuous
 62
     7
370
    25
100
AcDbLine
 10
229.7878688849
 20
248.1953120573
 30
0.0
 11
229.7878688849
 21
242.1953120573
 31
0.0
  0
LINE
  5
A7
330
1F
100
AcDbEntity
  8
0
  6
Continuous
 62
     7
370
    25
100
AcDbLine
 10
229.7878688849
 20
248.1953120573
 30
0.0
 11
244.4343154943
 21
248.1953120573
 31
0.0
  0
LINE
  5
A8
330
1F
100
AcDbEntity
  8
0
  6
Continuous
 62
     7
370
    25
100
AcDbLine
 10
244.4343154943
 20
248.1953120573
 30
0.0
 11
244.4343154943
 21
189.1293696863
 31
0.0
  0
LINE
  5
A9
330
1F
100
AcDbEntity
  8
0
  6
Continuous
 62
     7
370
    25
100
AcDbLine
 10
244.4343154943
 20
189.1293696863
 30
0.0
 11
256.5002578653
 21
189.1293696863
 31
0.0
  0
LINE
  5
AA
330
1F
100
AcDbEntity
  8
0
  6
Continuous
 62
     7
370
    25
100
AcDbLine
 10
256.5002578653
 20
189.1293696863
 30
0.0
 11
256.5002578653
 21
183.1293696863
 31
0.0
  0
LINE
  5
AB
330
1F
100
AcDbEntity
  8
0
  6
Continuous
 62
     7
370
    25
100
AcDbLine
 10
256.5002578653
 20
183.1293696863
 30
0.0
 11
258.5002578653
 21
183.1293696863
 31
0.0
  0
LINE
  5
AC
330
1F
100
AcDbEntity
  8
0
  6
Continuous
 62
     7
370
    25
100
AcDbLine
 10
258.5002578653
 20
183.1293696863
 30
0.0
 11
258.5002578653
 21
192.8417586667
 31
0.0
  0
ARC
  5
AD
330
1F
100
AcDbEntity
  8
0
  6
Continuous
 62
     7
370
    25
100
AcDbCircle
 10
266.5002578653
 20
192.8417586667
 30
0.0
 40
8.0
100
AcDbArc
 50
90.0
 51
180.0
  0
LINE
  5
AE
330
1F
100
AcDbEntity
  8
0
  6
Continuous
 62
     7
370
    25
100
AcDbLine
 10
266.5002578653
 20
200.8417586667
 30
0.0
 11
280.5002578653
 21
200.8417586667
 31
0.0
  0
ARC
  5
AF
330
1F
100
AcDbEntity
  8
0
  6
Continuous
 62
     7
370
    25
100
AcDbCircle
 10
280.5002578653
 20
192.8417586667
 30
0.0
 40
8.0
100
AcDbArc
 50
0.0
 51
90.0
  0
LINE
  5
B0
330
1F
100
AcDbEntity
  8
0
  6
Continuous
 62
     7
370
    25
100
AcDbLine
 10
288.5002578653
 20
192.8417586667
 30
0.0
 11
288.5002578653
 21
183.1293696863
 31
0.0
  0
LINE
  5
B1
330
1F
100
AcDbEntity
  8
0
  6
Continuous
 62
     7
370
    25
100
AcDbLine
 10
288.5002578653
 20
183.1293696863
 30
0.0
 11
290.5002578653
 21
183.1293696863
 31
0.0
  0
LINE
  5
B2
330
1F
100
AcDbEntity
  8
0
  6
Continuous
 62
     7
370
    25
100
AcDbLine
 10
290.5002578653
 20
183.1293696863
 30
0.0
 11
290.5002578653
 21
189.1293696863
 31
0.0
  0
LINE
  5
B3
330
1F
100
AcDbEntity
  8
0
  6
Continuous
 62
     7
370
    25
100
AcDbLine
 10
290.5002578653
 20
189.1293696863
 30
0.0
 11
303.5002578653
 21
189.1293696863
 31
0.0
  0
LINE
  5
B4
330
1F
100
AcDbEntity
  8
0
  6
Continuous
 62
     7
370
    25
100
AcDbLine
 10
303.5002578653
 20
189.1293696863
 30
0.0
 11
303.5002578653
 21
170.9829230769
 31
0.0
  0
LINE
  5
B5
330
1F
100
AcDbEntity
  8
0
  6
Continuous
 62
     7
370
    25
100
AcDbLine
 10
299.5002578653
 20
170.9829230769
 30
0.0
 11
303.5002578653
 21
170.9829230769
 31
0.0
  0
LINE
  5
B6
330
1F
100
AcDbEntity
  8
0
  6
Continuous
 62
     7
370
    25
100
AcDbLine
 10
299.5002578653
 20
169.9829230769
 30
0.0
 11
299.5002578653
 21
170.9829230769
 31
0.0
  0
LINE
  5
B7
330
1F
100
AcDbEntity
  8
0
  6
Continuous
 62
     7
370
    25
100
AcDbLine
 10
299.5002578653
 20
169.9829230769
 30
0.0
 11
313.7834431724
 21
169.9829230769
 31
0.0
  0
LINE
  5
B8
330
1F
100
AcDbEntity
  8
0
  6
Continuous
 62
     7
370
    25
100
AcDbLine
 10
313.7834431724
 20
169.9829230769
 30
0.0
 11
313.7834431724
 21
129.9829230769
 31
0.0
  0
LINE
  5
B9
330
1F
100
AcDbEntity
  8
0
  6
Continuous
 62
     7
370
    25
100
AcDbLine
 10
313.7834431724
 20
129.9829230769
 30
0.0
 11
299.5002578653
 21
129.9829230769
 31
0.0
  0
LINE
  5
BA
330
1F
100
AcDbEntity
  8
0
  6
Continuous
 62
     7
370
    25
100
AcDbLine
 10
299.5002578653
 20
128.9829230769
 30
0.0
 11
299.5002578653
 21
129.9829230769
 31
0.0
  0
LINE
  5
BB
330
1F
100
AcDbEntity
  8
0
  6
Continuous
 62
     7
370
    25
100
AcDbLine
 10
303.5002578653
 20
128.9829230769
 30
0.0
 11
299.5002578653
 21
128.9829230769
 31
0.0
  0
LINE
  5
BC
330
1F
100
AcDbEntity
  8
0
  6
Continuous
 62
     7
370
    25
100
AcDbLine
 10
303.5002578653
 20
128.9829230769
 30
0.0
 11
303.5002578653
 21
110.8364764675
 31
0.0
  0
LINE
  5
BD
330
1F
100
AcDbEntity
  8
0
  6
Continuous
 62
     7
370
    25
100
AcDbLine
 10
303.5002578653
 20
110.8364764675
 30
0.0
 11
244.4343154943
 21
110.8364764675
 31
0.0
  0
LINE
  5
BE
330
1F
100
AcDbEntity
  8
0
  6
Continuous
 62
     7
370
    25
100
AcDbLine
 10
244.4343154943
 20
110.8364764675
 30
0.0
 11
244.4343154943
 21
51.7705340965
 31
0.0
  0
LINE
  5
BF
330
1F
100
AcDbEntity
  8
0
  6
Continuous
 62
     7
370
    25
100
AcDbLine
 10
244.4343154943
 20
51.7705340965
 30
0.0
 11
229.7878688849
 21
51.7705340965
 31
0.0
  0
LINE
  5
C0
330
1F
100
AcDbEntity
  8
0
  6
Continuous
 62
     7
370
    25
100
AcDbLine
 10
229.7878688849
 20
57.7705340965
 30
0.0
 11
229.7878688849
 21
51.7705340965
 31
0.0
  0
LINE
  5
C1
330
1F
100
AcDbEntity
  8
0
  6
Continuous
 62
     7
370
    25
100
AcDbLine
 10
227.7878688849
 20
57.7705340965
 30
0.0
 11
229.7878688849
 21
57.7705340965
 31
0.0
  0
LINE
  5
C2
330
1F
100
AcDbEntity
  8
0
  6
Continuous
 62
     7
370
    25
100
AcDbLine
 10
227.7878688849
 20
57.7705340965
 30
0.0
 11
227.7878688849
 21
43.0581451162
 31
0.0
  0
ARC
  5
C3
330
1F
100
AcDbEntity
  8
0
  6
Continuous
 62
     7
370
    25
100
AcDbCircle
 10
222.7878688849
 20
43.0581451162
 30
0.0
 40
5.0
100
AcDbArc
 50
270.0
 51
0.0
  0
LINE
  5
C4
330
1F
100
AcDbEntity
  8
0
  6
Continuous
 62
     7
370
    25
100
AcDbLine
 10
222.7878688849
 20
38.0581451162
 30
0.0
 11
217.7878688849
 21
38.0581451162
 31
0.0
  0
ARC
  5
C5
330
1F
100
AcDbEntity
  8
0
  6
Continuous
 62
     7
370
    25
100
AcDbCircle
 10
217.7878688849
 20
43.0581451162
 30
0.0
 40
5.0
100
AcDbArc
 50
180.0
 51
270.0
  0
LINE
  5
C6
330
1F
100
AcDbEntity
  8
0
  6
Continuous
 62
     7
370
    25
100
AcDbLine
 10
212.7878688849
 20
43.0581451162
 30
0.0
 11
212.7878688849
 21
57.7705340965
 31
0.0
  0
LINE
  5
C7
330
1F
100
AcDbEntity
  8
0
  6
Continuous
 62
     7
370
    25
100
AcDbLine
 10
210.7878688849
 20
57.7705340965
 30
0.0
 11
212.7878688849
 21
57.7705340965
 31
0.0
  0
LINE
  5
C8
330
1F
100
AcDbEntity
  8
0
  6
Continuous
 62
     7
370
    25
100
AcDbLine
 10
210.7878688849
 20
51.7705340965
 30
0.0
 11
210.7878688849
 21
57.7705340965
 31
0.0
  0
LINE
  5
C9
330
1F
100
AcDbEntity
  8
0
  6
Continuous
 62
     7
370
    25
100
AcDbLine
 10
210.7878688849
 20
51.7705340965
 30
0.0
 11
196.1414222755
 21
51.7705340965
 31
0.0
  0
LINE
  5
CA
330
1F
100
AcDbEntity
  8
0
  6
Continuous
 62
     7
370
    25
100
AcDbLine
 10
196.1414222755
 20
51.7705340965
 30
0.0
 11
196.1414222755
 21
110.8364764675
 31
0.0
  0
LINE
  5
CB
330
1F
100
AcDbEntity
  8
0
  6
Continuous
 62
     7
370
    25
100
AcDbLine
 10
196.1414222755
 20
110.8364764675
 30
0.0
 11
137.0754799045
 21
110.8364764675
 31
0.0
  0
ARC
  5
CC
330
1F
100
AcDbEntity
  8
0
  6
Continuous
 62
     7
370
    25
100
AcDbCircle
 10
201.8488500604
 20
151.4829230769
 30
0.0
 40
0.5000000000000248
100
AcDbArc
 50
175.3476969742
 51
270.0
  0
LINE
  5
CD
330
1F
100
AcDbEntity
  8
0
  6
Continuous
 62
     7
370
    25
100
AcDbLine
 10
207.8782377979
 20
150.9829230769
 30
0.0
 11
201.8488500604
 21
150.9829230769
 31
0.0
  0
LINE
  5
CE
330
1F
100
AcDbEntity
  8
0
  6
Continuous
 62
     7
370
    25
100
AcDbLine
 10
206.5424068545
 20
162.3141715449
 30
0.0
 11
210.80582781
 21
158.0507505894
 31
0.0
  0
ARC
  5
CF
330
1F
100
AcDbEntity
  8
0
  6
Continuous
 62
     7
370
    25
100
AcDbCircle
 10
206.1888534639
 20
161.9606181543
 30
0.0
 40
0.4999999999999942
100
AcDbArc
 50
45.0
 51
139.6523030258
  0
SPLINE
  5
D0
330
1F
100
AcDbEntity
  8
0
  6
Continuous
 62
     7
370
    25
100
AcDbSpline
210
0.0
220
0.0
230
1.0
 70
     8
 71
     3
 72
    11
 73
     7
 74
     0
 42
0.00000001
 43
0.00000001
 40
0.0129188190688013
 40
0.0129188190688013
 40
0.0129188190688013
 40
0.0129188190688013
 40
0.03125
 40
0.0625
 40
0.09375
 40
0.1120811809311983
 40
0.1120811809311983
 40
0.1120811809311983
 40
0.1120811809311983
 10
201.3504974340464
 20
151.5234774821048
 30
0.0
 10
201.409663384812
 20
152.2505380030039
 30
0.0
 10
201.68277610261
 20
154.2078584186313
 30
0.0
 10
202.6210031433648
 20
157.3007784716797
 30
0.0
 10
204.1446011837328
 20
160.1512299176683
 30
0.0
 10
205.3355158677946
 20
161.7283843112966
 30
0.0
 10
205.8077886474537
 20
162.284330380959
 30
0.0
  0
ARC
  5
D1
330
1F
100
AcDbEntity
  8
0
  6
Continuous
 62
     7
370
    25
100
AcDbCircle
 10
201.8488500604
 20
148.4829230769
 30
0.0
 40
0.5000000000000248
100
AcDbArc
 50
90.0
 51
184.6523030258
  0
SPLINE
  5
D2
330
1F
100
AcDbEntity
  8
0
  6
Continuous
 62
     7
370
    25
100
AcDbSpline
210
0.0
220
0.0
230
1.0
 70
     8
 71
     3
 72
    11
 73
     7
 74
     0
 42
0.00000001
 43
0.00000001
 40
0.8879188190688018
 40
0.8879188190688018
 40
0.8879188190688018
 40
0.8879188190688018
 40
0.9062499999999999
 40
0.9374999999999998
 40
0.9687499999999999
 40
0.9870811809311979
 40
0.9870811809311979
 40
0.9870811809311979
 40
0.9870811809311979
 10
205.8077886474537
 20
137.6815157728869
 30
0.0
 10
205.3355158677946
 20
138.2374618425494
 30
0.0
 10
204.1446011837328
 20
139.8146162361776
 30
0.0
 10
202.6210031433648
 20
142.6650676821663
 30
0.0
 10
201.68277610261
 20
145.7579877352146
 30
0.0
 10
201.409663384812
 20
147.715308150842
 30
0.0
 10
201.3504974340464
 20
148.4423686717411
 30
0.0
  0
ARC
  5
D3
330
1F
100
AcDbEntity
  8
0
  6
Continuous
 62
     7
370
    25
100
AcDbCircle
 10
206.1888534639
 20
138.0052279995
 30
0.0
 40
0.5000000000000241
100
AcDbArc
 50
220.3476969742
 51
315.0
  0
LINE
  5
D4
330
1F
100
AcDbEntity
  8
0
  6
Continuous
 62
     7
370
    25
100
AcDbLine
 10
210.80582781
 20
141.9150955645
 30
0.0
 11
206.5424068545
 21
137.6516746089
 31
0.0
  0
LINE
  5
D5
330
1F
100
AcDbEntity
  8
0
  6
Continuous
 62
     7
370
    25
100
AcDbLine
 10
201.8488500604
 20
148.9829230769
 30
0.0
 11
207.8782377979
 21
148.9829230769
 31
0.0
  0
ARC
  5
D6
330
1F
100
AcDbEntity
  8
0
  6
Continuous
 62
     7
370
    25
100
AcDbCircle
 10
221.7878688849
 20
131.5439042525
 30
0.0
 40
0.5000000000000248
100
AcDbArc
 50
180.0
 51
274.6523030258
  0
SPLINE
  5
D7
330
1F
100
AcDbEntity
  8
0
  6
Continuous
 62
     7
370
    25
100
AcDbSpline
210
0.0
220
0.0
230
1.0
 70
     8
 71
     3
 72
    11
 73
     7
 74
     0
 42
0.00000001
 43
0.00000001
 40
0.6379188190688021
 40
0.6379188190688021
 40
0.6379188190688021
 40
0.6379188190688021
 40
0.6562499999999998
 40
0.6874999999999997
 40
0.7187499999999997
 40
0.7370811809311977
 40
0.7370811809311977
 40
0.7370811809311977
 40
0.7370811809311977
 10
232.5892761889076
 20
135.502842839505
 30
0.0
 10
232.0333301192452
 20
135.030570059846
 30
0.0
 10
230.4561757256169
 20
133.8396553757842
 30
0.0
 10
227.6057242796283
 20
132.3160573354163
 30
0.0
 10
224.51280422658
 20
131.3778302946614
 30
0.0
 10
222.5554838109525
 20
131.1047175768634
 30
0.0
 10
221.8284232900535
 20
131.0455516260978
 30
0.0
  0
ARC
  5
D8
330
1F
100
AcDbEntity
  8
0
  6
Continuous
 62
     7
370
    25
100
AcDbCircle
 10
232.2655639623
 20
135.883907656
 30
0.0
 40
0.5000000000000125
100
AcDbArc
 50
310.3476969742
 51
45.0
  0
LINE
  5
D9
330
1F
100
AcDbEntity
  8
0
  6
Continuous
 62
     7
370
    25
100
AcDbLine
 10
228.3556963973
 20
140.5008820021
 30
0.0
 11
232.6191173529
 21
136.2374610465
 31
0.0
  0
LINE
  5
DA
330
1F
100
AcDbEntity
  8
0
  6
Continuous
 62
     7
370
    25
100
AcDbLine
 10
221.2878688849
 20
131.5439042525
 30
0.0
 11
221.2878688849
 21
137.5732919899
 31
0.0
  0
ARC
  5
DB
330
1F
100
AcDbEntity
  8
0
  6
Continuous
 62
     7
370
    25
100
AcDbCircle
 10
234.3868843058
 20
138.0052279995
 30
0.0
 40
0.499999999999984
100
AcDbArc
 50
225.0
 51
319.6523030259
  0
SPLINE
  5
DC
330
1F
100
AcDbEntity
  8
0
  6
Continuous
 62
     7
370
    25
100
AcDbSpline
210
0.0
220
0.0
230
1.0
 70
     8
 71
     3
 72
    11
 73
     7
 74
     0
 42
0.00000001
 43
0.00000001
 40
0.5129188190688019
 40
0.5129188190688019
 40
0.5129188190688019
 40
0.5129188190688019
 40
0.5312499999999998
 40
0.5624999999999997
 40
0.5937499999999997
 40
0.6120811809311979
 40
0.6120811809311979
 40
0.6120811809311979
 40
0.6120811809311979
 10
239.2252403356967
 20
148.442368671741
 30
0.0
 10
239.1660743849311
 20
147.715308150842
 30
0.0
 10
238.8929616671331
 20
145.7579877352146
 30
0.0
 10
237.9547346263783
 20
142.6650676821663
 30
0.0
 10
236.4311365860103
 20
139.8146162361776
 30
0.0
 10
235.2402219019485
 20
138.2374618425494
 30
0.0
 10
234.7679491222895
 20
137.6815157728869
 30
0.0
  0
ARC
  5
DD
330
1F
100
AcDbEntity
  8
0
  6
Continuous
 62
     7
370
    25
100
AcDbCircle
 10
238.7268877093
 20
148.4829230769
 30
0.0
 40
0.5000000000000284
100
AcDbArc
 50
355.3476969742
 51
90.0
  0
LINE
  5
DE
330
1F
100
AcDbEntity
  8
0
  6
Continuous
 62
     7
370
    25
100
AcDbLine
 10
232.6974999719
 20
148.9829230769
 30
0.0
 11
238.7268877093
 21
148.9829230769
 31
0.0
  0
LINE
  5
DF
330
1F
100
AcDbEntity
  8
0
  6
Continuous
 62
     7
370
    25
100
AcDbLine
 10
234.0333309152
 20
137.6516746089
 30
0.0
 11
229.7699099597
 21
141.9150955645
 31
0.0
  0
ARC
  5
E0
330
1F
100
AcDbEntity
  8
0
  6
Continuous
 62
     7
370
    25
100
AcDbCircle
 10
238.7268877093
 20
151.4829230769
 30
0.0
 40
0.5
100
AcDbArc
 50
270.0
 51
4.6523030259
  0
SPLINE
  5
E1
330
1F
100
AcDbEntity
  8
0
  6
Continuous
 62
     7
370
    25
100
AcDbSpline
210
0.0
220
0.0
230
1.0
 70
     8
 71
     3
 72
    11
 73
     7
 74
     0
 42
0.00000001
 43
0.00000001
 40
0.3879188190688017
 40
0.3879188190688017
 40
0.3879188190688017
 40
0.3879188190688017
 40
0.4062499999999999
 40
0.4374999999999998
 40
0.4687499999999997
 40
0.4870811809311977
 40
0.4870811809311977
 40
0.4870811809311977
 40
0.4870811809311977
 10
234.7679491222895
 20
162.284330380959
 30
0.0
 10
235.2402219019485
 20
161.7283843112966
 30
0.0
 10
236.4311365860103
 20
160.1512299176683
 30
0.0
 10
237.9547346263783
 20
157.3007784716797
 30
0.0
 10
238.8929616671331
 20
154.2078584186314
 30
0.0
 10
239.1660743849311
 20
152.2505380030039
 30
0.0
 10
239.2252403356967
 20
151.5234774821049
 30
0.0
  0
ARC
  5
E2
330
1F
100
AcDbEntity
  8
0
  6
Continuous
 62
     7
370
    25
100
AcDbCircle
 10
234.3868843058
 20
161.9606181543
 30
0.0
 40
0.499999999999984
100
AcDbArc
 50
40.3476969741
 51
135.0
  0
LINE
  5
E3
330
1F
100
AcDbEntity
  8
0
  6
Continuous
 62
     7
370
    25
100
AcDbLine
 10
229.7699099597
 20
158.0507505894
 30
0.0
 11
234.0333309152
 21
162.3141715449
 31
0.0
  0
LINE
  5
E4
330
1F
100
AcDbEntity
  8
0
  6
Continuous
 62
     7
370
    25
100
AcDbLine
 10
238.7268877093
 20
150.9829230769
 30
0.0
 11
232.6974999719
 21
150.9829230769
 31
0.0
  0
ARC
  5
E5
330
1F
100
AcDbEntity
  8
0
  6
Continuous
 62
     7
370
    25
100
AcDbCircle
 10
232.2655639623
 20
164.0819384979
 30
0.0
 40
0.5000000000000125
100
AcDbArc
 50
315.0
 51
49.6523030258
  0
SPLINE
  5
E6
330
1F
100
AcDbEntity
  8
0
  6
Continuous
 62
     7
370
    25
100
AcDbSpline
210
0.0
220
0.0
230
1.0
 70
     8
 71
     3
 72
    11
 73
     7
 74
     0
 42
0.00000001
 43
0.00000001
 40
0.262918819068802
 40
0.262918819068802
 40
0.262918819068802
 40
0.262918819068802
 40
0.2812499999999999
 40
0.3124999999999999
 40
0.3437499999999998
 40
0.3620811809311975
 40
0.3620811809311975
 40
0.3620811809311975
 40
0.3620811809311975
 10
221.8284232900535
 20
168.9202945277481
 30
0.0
 10
222.5554838109525
 20
168.8611285769825
 30
0.0
 10
224.51280422658
 20
168.5880158591845
 30
0.0
 10
227.6057242796282
 20
167.6497888184297
 30
0.0
 10
230.4561757256169
 20
166.1261907780617
 30
0.0
 10
232.0333301192452
 20
164.935276094
 30
0.0
 10
232.5892761889076
 20
164.4630033143409
 30
0.0
  0
ARC
  5
E7
330
1F
100
AcDbEntity
  8
0
  6
Continuous
 62
     7
370
    25
100
AcDbCircle
 10
221.7878688849
 20
168.4219419014
 30
0.0
 40
0.5000000000000248
100
AcDbArc
 50
85.3476969742
 51
180.0
  0
LINE
  5
E8
330
1F
100
AcDbEntity
  8
0
  6
Continuous
 62
     7
370
    25
100
AcDbLine
 10
221.2878688849
 20
162.3925541639
 30
0.0
 11
221.2878688849
 21
168.4219419014
 31
0.0
  0
LINE
  5
E9
330
1F
100
AcDbEntity
  8
0
  6
Continuous
 62
     7
370
    25
100
AcDbLine
 10
232.6191173529
 20
163.7283851073
 30
0.0
 11
228.3556963973
 21
159.4649641518
 31
0.0
  0
ARC
  5
EA
330
1F
100
AcDbEntity
  8
0
  6
Continuous
 62
     7
370
    25
100
AcDbCircle
 10
218.7878688849
 20
168.4219419014
 30
0.0
 40
0.5000000000000248
100
AcDbArc
 50
0.0
 51
94.6523030258
  0
ARC
  5
EB
330
1F
100
AcDbEntity
  8
0
  6
Continuous
 62
     7
370
    25
100
AcDbCircle
 10
208.3101738075
 20
164.0819384979
 30
0.0
 40
0.4999999999999757
100
AcDbArc
 50
130.3476969741
 51
225.0
  0
LINE
  5
EC
330
1F
100
AcDbEntity
  8
0
  6
Continuous
 62
     7
370
    25
100
AcDbLine
 10
212.2200413724
 20
159.4649641518
 30
0.0
 11
207.9566204169
 21
163.7283851073
 31
0.0
  0
LINE
  5
ED
330
1F
100
AcDbEntity
  8
0
  6
Continuous
 62
     7
370
    25
100
AcDbLine
 10
219.2878688849
 20
168.4219419014
 30
0.0
 11
219.2878688849
 21
162.3925541639
 31
0.0
  0
ARC
  5
EE
330
1F
100
AcDbEntity
  8
0
  6
Continuous
 62
     7
370
    25
100
AcDbCircle
 10
208.3101738075
 20
135.883907656
 30
0.0
 40
0.5000000000000158
100
AcDbArc
 50
135.0
 51
229.6523030259
  0
SPLINE
  5
EF
330
1F
100
AcDbEntity
  8
0
  6
Continuous
 62
     7
370
    25
100
AcDbSpline
210
0.0
220
0.0
230
1.0
 70
     8
 71
     3
 72
    11
 73
     7
 74
     0
 42
0.00000001
 43
0.00000001
 40
0.7629188190688011
 40
0.7629188190688011
 40
0.7629188190688011
 40
0.7629188190688011
 40
0.7812499999999998
 40
0.8124999999999999
 40
0.8437499999999998
 40
0.862081180931199
 40
0.862081180931199
 40
0.862081180931199
 40
0.862081180931199
 10
218.7473144796897
 20
131.0455516260978
 30
0.0
 10
218.0202539587906
 20
131.1047175768634
 30
0.0
 10
216.0629335431632
 20
131.3778302946614
 30
0.0
 10
212.9700134901149
 20
132.3160573354162
 30
0.0
 10
210.1195620441262
 20
133.8396553757842
 30
0.0
 10
208.5424076504979
 20
135.0305700598461
 30
0.0
 10
207.9864615808354
 20
135.5028428395051
 30
0.0
  0
ARC
  5
F0
330
1F
100
AcDbEntity
  8
0
  6
Continuous
 62
     7
370
    25
100
AcDbCircle
 10
218.7878688849
 20
131.5439042525
 30
0.0
 40
0.5000000000000248
100
AcDbArc
 50
265.3476969742
 51
0.0
  0
LINE
  5
F1
330
1F
100
AcDbEntity
  8
0
  6
Continuous
 62
     7
370
    25
100
AcDbLine
 10
219.2878688849
 20
137.5732919899
 30
0.0
 11
219.2878688849
 21
131.5439042525
 31
0.0
  0
LINE
  5
F2
330
1F
100
AcDbEntity
  8
0
  6
Continuous
 62
     7
370
    25
100
AcDbLine
 10
207.9566204169
 20
136.2374610465
 30
0.0
 11
212.2200413724
 21
140.5008820021
 31
0.0
  0
LINE
  5
F3
330
1F
100
AcDbEntity
  8
0
  6
Continuous
 62
     7
370
    25
100
AcDbLine
 10
216.2080904702
 20
147.3173582246
 30
0.0
 11
212.9475233273
 21
144.0567910817
 31
0.0
  0
LINE
  5
F4
330
1F
100
AcDbEntity
  8
0
  6
Continuous
 62
     7
370
    25
100
AcDbLine
 10
210.9070526449
 20
148.9829230769
 30
0.0
 11
215.5181909193
 21
148.9829230769
 31
0.0
  0
LINE
  5
F5
330
1F
100
AcDbEntity
  8
0
  6
Continuous
 62
     7
370
    25
100
AcDbLine
 10
222.9534337372
 20
145.9031446622
 30
0.0
 11
226.2140008801
 21
142.6425775194
 31
0.0
  0
LINE
  5
F6
330
1F
100
AcDbEntity
  8
0
  6
Continuous
 62
     7
370
    25
100
AcDbLine
 10
221.2878688849
 20
140.6021068369
 30
0.0
 11
221.2878688849
 21
145.2132451113
 31
0.0
  0
LINE
  5
F7
330
1F
100
AcDbEntity
  8
0
  6
Continuous
 62
     7
370
    25
100
AcDbLine
 10
225.0575468504
 20
148.9829230769
 30
0.0
 11
229.6686851249
 21
148.9829230769
 31
0.0
  0
LINE
  5
F8
330
1F
100
AcDbEntity
  8
0
  6
Continuous
 62
     7
370
    25
100
AcDbLine
 10
227.6282144424
 20
144.0567910817
 30
0.0
 11
224.3676472996
 21
147.3173582246
 31
0.0
  0
LINE
  5
F9
330
1F
100
AcDbEntity
  8
0
  6
Continuous
 62
     7
370
    25
100
AcDbLine
 10
224.3676472996
 20
152.6484879293
 30
0.0
 11
227.6282144424
 21
155.9090550721
 31
0.0
  0
LINE
  5
FA
330
1F
100
AcDbEntity
  8
0
  6
Continuous
 62
     7
370
    25
100
AcDbLine
 10
229.6686851249
 20
150.9829230769
 30
0.0
 11
225.0575468504
 21
150.9829230769
 31
0.0
  0
LINE
  5
FB
330
1F
100
AcDbEntity
  8
0
  6
Continuous
 62
     7
370
    25
100
AcDbLine
 10
221.2878688849
 20
154.7526010425
 30
0.0
 11
221.2878688849
 21
159.3637393169
 31
0.0
  0
LINE
  5
FC
330
1F
100
AcDbEntity
  8
0
  6
Continuous
 62
     7
370
    25
100
AcDbLine
 10
226.2140008801
 20
157.3232686345
 30
0.0
 11
222.9534337372
 21
154.0627014916
 31
0.0
  0
LINE
  5
FD
330
1F
100
AcDbEntity
  8
0
  6
Continuous
 62
     7
370
    25
100
AcDbLine
 10
217.6223040325
 20
154.0627014916
 30
0.0
 11
214.3617368897
 21
157.3232686345
 31
0.0
  0
LINE
  5
FE
330
1F
100
AcDbEntity
  8
0
  6
Continuous
 62
     7
370
    25
100
AcDbLine
 10
219.2878688849
 20
159.3637393169
 30
0.0
 11
219.2878688849
 21
154.7526010425
 31
0.0
  0
LINE
  5
FF
330
1F
100
AcDbEntity
  8
0
  6
Continuous
 62
     7
370
    25
100
AcDbLine
 10
219.2878688849
 20
145.2132451113
 30
0.0
 11
219.2878688849
 21
140.6021068369
 31
0.0
  0
LINE
  5
100
330
1F
100
AcDbEntity
  8
0
  6
Continuous
 62
     7
370
    25
100
AcDbLine
 10
214.3617368897
 20
142.6425775194
 30
0.0
 11
217.6223040325
 21
145.9031446622
 31
0.0
  0
SPLINE
  5
101
330
1F
100
AcDbEntity
  8
0
  6
Continuous
 62
     7
370
    25
100
AcDbSpline
210
0.0
220
0.0
230
1.0
 70
     8
 71
     3
 72
    11
 73
     7
 74
     0
 42
0.00000001
 43
0.00000001
 40
0.1379188190688016
 40
0.1379188190688016
 40
0.1379188190688016
 40
0.1379188190688016
 40
0.1562499999999999
 40
0.1874999999999999
 40
0.2187499999999999
 40
0.2370811809311979
 40
0.2370811809311979
 40
0.2370811809311979
 40
0.2370811809311979
 10
207.9864615808355
 20
164.4630033143409
 30
0.0
 10
208.5424076504979
 20
164.9352760939999
 30
0.0
 10
210.1195620441262
 20
166.1261907780617
 30
0.0
 10
212.9700134901149
 20
167.6497888184297
 30
0.0
 10
216.0629335431632
 20
168.5880158591845
 30
0.0
 10
218.0202539587906
 20
168.8611285769825
 30
0.0
 10
218.7473144796896
 20
168.9202945277481
 30
0.0
  0
ARC
  5
102
330
1F
100
AcDbEntity
  8
0
  6
Continuous
 62
     7
370
    25
100
AcDbCircle
 10
224.7212006902
 20
147.6709116152
 30
0.0
 40
0.5000000000000213
100
AcDbArc
 50
152.4568223179
 51
225.0
  0
ARC
  5
103
330
1F
100
AcDbEntity
  8
0
  6
Continuous
 62
     7
370
    25
100
AcDbCircle
 10
210.9070526449
 20
151.4829230769
 30
0.0
 40
0.5
100
AcDbArc
 50
170.9189366198
 51
270.0
  0
ARC
  5
104
330
1F
100
AcDbEntity
  8
0
  6
Continuous
 62
     7
370
    25
100
AcDbCircle
 10
215.8545370796
 20
152.2949345387
 30
0.0
 40
0.4999999999999962
100
AcDbArc
 50
332.4568223179
 51
45.0
  0
SPLINE
  5
105
330
1F
100
AcDbEntity
  8
0
  6
Continuous
 62
     7
370
    25
100
AcDbSpline
210
0.0
220
0.0
230
1.0
 70
     8
 71
     3
 72
    11
 73
     7
 74
     0
 42
0.00000001
 43
0.00000001
 40
0.0252348282784118
 40
0.0252348282784118
 40
0.0252348282784118
 40
0.0252348282784118
 40
0.03125
 40
0.0625
 40
0.09375
 40
0.0997651717215885
 40
0.0997651717215885
 40
0.0997651717215885
 40
0.0997651717215885
 10
210.4133196323283
 20
151.5618389329605
 30
0.0
 10
210.4332034267512
 20
151.6862408746485
 30
0.0
 10
210.5709542066616
 20
152.4546043768807
 30
0.0
 10
210.9895184946049
 20
153.8344259162686
 30
0.0
 10
211.6692300155661
 20
155.1060767299642
 30
0.0
 10
212.1151405478224
 20
155.7467962833972
 30
0.0
 10
212.1890460385106
 20
155.8488217058297
 30
0.0
  0
ARC
  5
106
330
1F
100
AcDbEntity
  8
0
  6
Continuous
 62
     7
370
    25
100
AcDbCircle
 10
212.5939699367
 20
155.5555016815
 30
0.0
 40
0.5000000000000115
100
AcDbArc
 50
45.0
 51
144.0810633802
  0
ARC
  5
107
330
1F
100
AcDbEntity
  8
0
  6
Continuous
 62
     7
370
    25
100
AcDbCircle
 10
221.7878688849
 20
137.5732919899
 30
0.0
 40
0.5000000000000143
100
AcDbArc
 50
96.8902505204
 51
180.0
  0
ARC
  5
108
330
1F
100
AcDbEntity
  8
0
  6
Continuous
 62
     7
370
    25
100
AcDbCircle
 10
227.981767833
 20
155.5555016815
 30
0.0
 40
0.5000000000000241
100
AcDbArc
 50
35.9189366198
 51
135.0
  0
ARC
  5
109
330
1F
100
AcDbEntity
  8
0
  6
Continuous
 62
     7
370
    25
100
AcDbCircle
 10
212.5939699367
 20
144.4103444723
 30
0.0
 40
0.500000000000004
100
AcDbArc
 50
215.9189366198
 51
315.0
  0
ARC
  5
10A
330
1F
100
AcDbEntity
  8
0
  6
Continuous
 62
     7
370
    25
100
AcDbCircle
 10
218.7878688849
 20
159.3637393169
 30
0.0
 40
0.5000000000000094
100
AcDbArc
 50
0.0
 51
99.0810633802
  0
ARC
  5
10B
330
1F
100
AcDbEntity
  8
0
  6
Continuous
 62
     7
370
    25
100
AcDbCircle
 10
215.5181909193
 20
151.4829230769
 30
0.0
 40
0.5
100
AcDbArc
 50
270.0
 51
342.5431776821
  0
SPLINE
  5
10C
330
1F
100
AcDbEntity
  8
0
  6
Continuous
 62
     7
370
    25
100
AcDbSpline
210
0.0
220
0.0
230
1.0
 70
     8
 71
     3
 72
     9
 73
     5
 74
     0
 42
0.00000001
 43
0.00000001
 40
0.0484937628519642
 40
0.0484937628519642
 40
0.0484937628519642
 40
0.0484937628519642
 40
0.0625
 40
0.0765062371480361
 40
0.0765062371480361
 40
0.0765062371480361
 40
0.0765062371480361
 10
215.9951625641055
 20
151.3329295769043
 30
0.0
 10
216.0347626735608
 20
151.4588558959706
 30
0.0
 10
216.1250273719498
 20
151.7072284895849
 30
0.0
 10
216.2368265368228
 20
151.9466812151231
 30
0.0
 10
216.2978683850328
 20
152.0637260751963
 30
0.0
  0
ARC
  5
10D
330
1F
100
AcDbEntity
  8
0
  6
Continuous
 62
     7
370
    25
100
AcDbCircle
 10
228.0021430067
 20
159.8185175423
 30
0.0
 40
0.500000000000004
100
AcDbArc
 50
231.8902505204
 51
315.0
  0
ARC
  5
10E
330
1F
100
AcDbEntity
  8
0
  6
Continuous
 62
     7
370
    25
100
AcDbCircle
 10
217.9758574231
 20
154.4162548822
 30
0.0
 40
0.5000000000000241
100
AcDbArc
 50
225.0
 51
297.5431776821
  0
ARC
  5
10F
330
1F
100
AcDbEntity
  8
0
  6
Continuous
 62
     7
370
    25
100
AcDbCircle
 10
210.4522744194
 20
142.2686489551
 30
0.0
 40
0.500000000000004
100
AcDbArc
 50
315.0
 51
38.1097494796
  0
ARC
  5
110
330
1F
100
AcDbEntity
  8
0
  6
Continuous
 62
     7
370
    25
100
AcDbCircle
 10
221.7878688849
 20
140.6021068369
 30
0.0
 40
0.5000000000000094
100
AcDbArc
 50
180.0
 51
279.0810633802
  0
ARC
  5
111
330
1F
100
AcDbEntity
  8
0
  6
Continuous
 62
     7
370
    25
100
AcDbCircle
 10
218.7878688849
 20
137.5732919899
 30
0.0
 40
0.5000000000000143
100
AcDbArc
 50
0.0
 51
83.1097494796
  0
ARC
  5
112
330
1F
100
AcDbEntity
  8
0
  6
Continuous
 62
     7
370
    25
100
AcDbCircle
 10
228.0021430067
 20
140.1473286115
 30
0.0
 40
0.500000000000004
100
AcDbArc
 50
45.0
 51
128.1097494796
  0
SPLINE
  5
113
330
1F
100
AcDbEntity
  8
0
  6
Continuous
 62
     7
370
    25
100
AcDbSpline
210
0.0
220
0.0
230
1.0
 70
     8
 71
     3
 72
    11
 73
     7
 74
     0
 42
0.00000001
 43
0.00000001
 40
0.6441449877449417
 40
0.6441449877449417
 40
0.6441449877449417
 40
0.6441449877449417
 40
0.6562500000000001
 40
0.6875
 40
0.71875
 40
0.7308550122550588
 40
0.7308550122550588
 40
0.7308550122550588
 40
0.7308550122550588
 10
227.6935581209943
 20
140.5407436192127
 30
0.0
 10
227.4541786141271
 20
140.3529803251669
 30
0.0
 10
226.571287180983
 20
139.7130542703798
 30
0.0
 10
224.9096722920863
 20
138.8249026086029
 30
0.0
 10
223.1067150736624
 20
138.2779815157081
 30
0.0
 10
222.0299205014368
 20
138.1061790490783
 30
0.0
 10
221.7278849303762
 20
138.0696808749732
 30
0.0
  0
ARC
  5
114
330
1F
100
AcDbEntity
  8
0
  6
Continuous
 62
     7
370
    25
100
AcDbCircle
 10
225.8604474895
 20
157.6768220251
 30
0.0
 40
0.500000000000004
100
AcDbArc
 50
315.0
 51
54.0810633802
  0
ARC
  5
115
330
1F
100
AcDbEntity
  8
0
  6
Continuous
 62
     7
370
    25
100
AcDbCircle
 10
225.0575468504
 20
148.4829230769
 30
0.0
 40
0.5
100
AcDbArc
 50
90.0
 51
162.5431776821
  0
SPLINE
  5
116
330
1F
100
AcDbEntity
  8
0
  6
Continuous
 62
     7
370
    25
100
AcDbSpline
210
0.0
220
0.0
230
1.0
 70
     8
 71
     3
 72
     9
 73
     5
 74
     0
 42
0.00000001
 43
0.00000001
 40
0.5484937628519639
 40
0.5484937628519639
 40
0.5484937628519639
 40
0.5484937628519639
 40
0.5624999999999999
 40
0.5765062371480357
 40
0.5765062371480357
 40
0.5765062371480357
 40
0.5765062371480357
 10
224.5805752056376
 20
148.6329165769416
 30
0.0
 10
224.5409750961823
 20
148.5069902578754
 30
0.0
 10
224.4507103977934
 20
148.258617664261
 30
0.0
 10
224.3389112329203
 20
148.0191649387229
 30
0.0
 10
224.2778693847103
 20
147.9021200786497
 30
0.0
  0
ARC
  5
117
330
1F
100
AcDbEntity
  8
0
  6
Continuous
 62
     7
370
    25
100
AcDbCircle
 10
207.8782377979
 20
151.4829230769
 30
0.0
 40
0.5000000000000109
100
AcDbArc
 50
270.0
 51
353.1097494796
  0
ARC
  5
118
330
1F
100
AcDbEntity
  8
0
  6
Continuous
 62
     7
370
    25
100
AcDbCircle
 10
218.7878688849
 20
145.2132451113
 30
0.0
 40
0.5000000000000204
100
AcDbArc
 50
0.0
 51
72.5431776821
  0
ARC
  5
119
330
1F
100
AcDbEntity
  8
0
  6
Continuous
 62
     7
370
    25
100
AcDbCircle
 10
214.7152902803
 20
142.2890241288
 30
0.0
 40
0.500000000000004
100
AcDbArc
 50
135.0
 51
234.0810633802
  0
SPLINE
  5
11A
330
1F
100
AcDbEntity
  8
0
  6
Continuous
 62
     7
370
    25
100
AcDbSpline
210
0.0
220
0.0
230
1.0
 70
     8
 71
     3
 72
    11
 73
     7
 74
     0
 42
0.00000001
 43
0.00000001
 40
0.9002348282784115
 40
0.9002348282784115
 40
0.9002348282784115
 40
0.9002348282784115
 40
0.9062499999999999
 40
0.9374999999999998
 40
0.9687499999999999
 40
0.9747651717215882
 40
0.9747651717215882
 40
0.9747651717215882
 40
0.9747651717215882
 10
212.1890460385106
 20
144.1170244480162
 30
0.0
 10
212.1151405478224
 20
144.2190498704487
 30
0.0
 10
211.6692300155661
 20
144.8597694238817
 30
0.0
 10
210.9895184946049
 20
146.1314202375773
 30
0.0
 10
210.5709542066616
 20
147.5112417769652
 30
0.0
 10
210.4332034267512
 20
148.2796052791974
 30
0.0
 10
210.4133196323283
 20
148.4040072208854
 30
0.0
  0
ARC
  5
11B
330
1F
100
AcDbEntity
  8
0
  6
Continuous
 62
     7
370
    25
100
AcDbCircle
 10
210.9070526449
 20
148.4829230769
 30
0.0
 40
0.5
100
AcDbArc
 50
90.0
 51
189.0810633802
  0
ARC
  5
11C
330
1F
100
AcDbEntity
  8
0
  6
Continuous
 62
     7
370
    25
100
AcDbCircle
 10
207.8782377979
 20
148.4829230769
 30
0.0
 40
0.5000000000000143
100
AcDbArc
 50
6.8902505204
 51
90.0
  0
SPLINE
  5
11D
330
1F
100
AcDbEntity
  8
0
  6
Continuous
 62
     7
370
    25
100
AcDbSpline
210
0.0
220
0.0
230
1.0
 70
     8
 71
     3
 72
    11
 73
     7
 74
     0
 42
0.00000001
 43
0.00000001
 40
0.8941449877449411
 40
0.8941449877449411
 40
0.8941449877449411
 40
0.8941449877449411
 40
0.90625
 40
0.9374999999999999
 40
0.9687499999999999
 40
0.9808550122550587
 40
0.9808550122550587
 40
0.9808550122550587
 40
0.9808550122550587
 10
210.8456894271613
 20
142.5772338408002
 30
0.0
 10
210.6579261331155
 20
142.8166133476674
 30
0.0
 10
210.0180000783284
 20
143.6995047808116
 30
0.0
 10
209.1298484165515
 20
145.3611196697082
 30
0.0
 10
208.5829273236567
 20
147.1640768881321
 30
0.0
 10
208.4111248570269
 20
148.2408714603578
 30
0.0
 10
208.3746266829217
 20
148.5429070314184
 30
0.0
  0
SPLINE
  5
11E
330
1F
100
AcDbEntity
  8
0
  6
Continuous
 62
     7
370
    25
100
AcDbSpline
210
0.0
220
0.0
230
1.0
 70
     8
 71
     3
 72
    11
 73
     7
 74
     0
 42
0.00000001
 43
0.00000001
 40
0.2752348282784118
 40
0.2752348282784118
 40
0.2752348282784118
 40
0.2752348282784118
 40
0.2812499999999999
 40
0.3124999999999999
 40
0.3437499999999999
 40
0.3497651717215879
 40
0.3497651717215879
 40
0.3497651717215879
 40
0.3497651717215879
 10
221.8667847409091
 20
159.8574723294662
 30
0.0
 10
221.9911866825971
 20
159.8375885350433
 30
0.0
 10
222.7595501848293
 20
159.699837755133
 30
0.0
 10
224.1393717242172
 20
159.2812734671897
 30
0.0
 10
225.4110225379128
 20
158.6015619462285
 30
0.0
 10
226.0517420913458
 20
158.1556514139722
 30
0.0
 10
226.1537675137783
 20
158.081745923284
 30
0.0
  0
ARC
  5
11F
330
1F
100
AcDbEntity
  8
0
  6
Continuous
 62
     7
370
    25
100
AcDbCircle
 10
221.7878688849
 20
159.3637393169
 30
0.0
 40
0.5000000000000094
100
AcDbArc
 50
80.9189366198
 51
180.0
  0
ARC
  5
120
330
1F
100
AcDbEntity
  8
0
  6
Continuous
 62
     7
370
    25
100
AcDbCircle
 10
225.8604474895
 20
142.2890241288
 30
0.0
 40
0.5000000000000241
100
AcDbArc
 50
305.9189366198
 51
45.0
  0
SPLINE
  5
121
330
1F
100
AcDbEntity
  8
0
  6
Continuous
 62
     7
370
    25
100
AcDbSpline
210
0.0
220
0.0
230
1.0
 70
     8
 71
     3
 72
    11
 73
     7
 74
     0
 42
0.00000001
 43
0.00000001
 40
0.650234828278412
 40
0.650234828278412
 40
0.650234828278412
 40
0.650234828278412
 40
0.6562499999999999
 40
0.6874999999999998
 40
0.7187499999999998
 40
0.724765171721588
 40
0.724765171721588
 40
0.724765171721588
 40
0.724765171721588
 10
226.1537675137783
 20
141.884100230562
 30
0.0
 10
226.0517420913458
 20
141.8101947398738
 30
0.0
 10
225.4110225379128
 20
141.3642842076175
 30
0.0
 10
224.1393717242172
 20
140.6845726866563
 30
0.0
 10
222.7595501848293
 20
140.266008398713
 30
0.0
 10
221.9911866825971
 20
140.1282576188026
 30
0.0
 10
221.8667847409091
 20
140.1083738243797
 30
0.0
  0
SPLINE
  5
122
330
1F
100
AcDbEntity
  8
0
  6
Continuous
 62
     7
370
    25
100
AcDbSpline
210
0.0
220
0.0
230
1.0
 70
     8
 71
     3
 72
    11
 73
     7
 74
     0
 42
0.00000001
 43
0.00000001
 40
0.1441449877449417
 40
0.1441449877449417
 40
0.1441449877449417
 40
0.1441449877449417
 40
0.15625
 40
0.1875
 40
0.21875
 40
0.2308550122550586
 40
0.2308550122550586
 40
0.2308550122550586
 40
0.2308550122550586
 10
212.8821796487488
 20
159.4251025346332
 30
0.0
 10
213.121559155616
 20
159.612865828679
 30
0.0
 10
214.0044505887602
 20
160.2527918834661
 30
0.0
 10
215.6660654776568
 20
161.140943545243
 30
0.0
 10
217.4690226960807
 20
161.6878646381378
 30
0.0
 10
218.5458172683064
 20
161.8596671047677
 30
0.0
 10
218.8478528393669
 20
161.8961652788728
 30
0.0
  0
ARC
  5
123
330
1F
100
AcDbEntity
  8
0
  6
Continuous
 62
     7
370
    25
100
AcDbCircle
 10
218.7878688849
 20
162.3925541639
 30
0.0
 40
0.5000000000000143
100
AcDbArc
 50
276.8902505204
 51
0.0
  0
ARC
  5
124
330
1F
100
AcDbEntity
  8
0
  6
Continuous
 62
     7
370
    25
100
AcDbCircle
 10
212.573594763
 20
159.8185175423
 30
0.0
 40
0.5000000000000241
100
AcDbArc
 50
225.0
 51
308.1097494796
  0
ARC
  5
125
330
1F
100
AcDbEntity
  8
0
  6
Continuous
 62
     7
370
    25
100
AcDbCircle
 10
230.1234633503
 20
157.6971971988
 30
0.0
 40
0.5000000000000442
100
AcDbArc
 50
135.0
 51
218.1097494796
  0
SPLINE
  5
126
330
1F
100
AcDbEntity
  8
0
  6
Continuous
 62
     7
370
    25
100
AcDbSpline
210
0.0
220
0.0
230
1.0
 70
     8
 71
     3
 72
    11
 73
     7
 74
     0
 42
0.00000001
 43
0.00000001
 40
0.1502348282784121
 40
0.1502348282784121
 40
0.1502348282784121
 40
0.1502348282784121
 40
0.1562499999999999
 40
0.1875
 40
0.21875
 40
0.2247651717215881
 40
0.2247651717215881
 40
0.2247651717215881
 40
0.2247651717215881
 10
214.4219702559648
 20
158.081745923284
 30
0.0
 10
214.5239956783974
 20
158.1556514139722
 30
0.0
 10
215.1647152318303
 20
158.6015619462285
 30
0.0
 10
216.4363660455259
 20
159.2812734671897
 30
0.0
 10
217.8161875849138
 20
159.699837755133
 30
0.0
 10
218.584551087146
 20
159.8375885350433
 30
0.0
 10
218.708953028834
 20
159.8574723294662
 30
0.0
  0
ARC
  5
127
330
1F
100
AcDbEntity
  8
0
  6
Continuous
 62
     7
370
    25
100
AcDbCircle
 10
214.7152902803
 20
157.6768220251
 30
0.0
 40
0.5000000000000241
100
AcDbArc
 50
125.9189366198
 51
225.0
  0
ARC
  5
128
330
1F
100
AcDbEntity
  8
0
  6
Continuous
 62
     7
370
    25
100
AcDbCircle
 10
232.6974999719
 20
148.4829230769
 30
0.0
 40
0.5000000000000284
100
AcDbArc
 50
90.0
 51
173.1097494796
  0
SPLINE
  5
129
330
1F
100
AcDbEntity
  8
0
  6
Continuous
 62
     7
370
    25
100
AcDbSpline
210
0.0
220
0.0
230
1.0
 70
     8
 71
     3
 72
    11
 73
     7
 74
     0
 42
0.00000001
 43
0.00000001
 40
0.7691449877449414
 40
0.7691449877449414
 40
0.7691449877449414
 40
0.7691449877449414
 40
0.7812500000000001
 40
0.8125000000000002
 40
0.84375
 40
0.8558550122550584
 40
0.8558550122550584
 40
0.8558550122550584
 40
0.8558550122550584
 10
218.8478528393669
 20
138.0696808749732
 30
0.0
 10
218.5458172683064
 20
138.1061790490783
 30
0.0
 10
217.4690226960807
 20
138.2779815157081
 30
0.0
 10
215.6660654776568
 20
138.8249026086029
 30
0.0
 10
214.0044505887601
 20
139.7130542703798
 30
0.0
 10
213.121559155616
 20
140.3529803251669
 30
0.0
 10
212.8821796487488
 20
140.5407436192127
 30
0.0
  0
ARC
  5
12A
330
1F
100
AcDbEntity
  8
0
  6
Continuous
 62
     7
370
    25
100
AcDbCircle
 10
212.573594763
 20
140.1473286115
 30
0.0
 40
0.5000000000000241
100
AcDbArc
 50
51.8902505204
 51
135.0
  0
SPLINE
  5
12B
330
1F
100
AcDbEntity
  8
0
  6
Continuous
 62
     7
370
    25
100
AcDbSpline
210
0.0
220
0.0
230
1.0
 70
     8
 71
     3
 72
     9
 73
     5
 74
     0
 42
0.00000001
 43
0.00000001
 40
0.1734937628519645
 40
0.1734937628519645
 40
0.1734937628519645
 40
0.1734937628519645
 40
0.1874999999999999
 40
0.2015062371480356
 40
0.2015062371480356
 40
0.2015062371480356
 40
0.2015062371480356
 10
218.2070658865983
 20
153.9729235767618
 30
0.0
 10
218.3241107466715
 20
154.0339654249717
 30
0.0
 10
218.5635634722096
 20
154.1457645898448
 30
0.0
 10
218.811936065824
 20
154.2360292882337
 30
0.0
 10
218.9378623848902
 20
154.275629397689
 30
0.0
  0
ARC
  5
12C
330
1F
100
AcDbEntity
  8
0
  6
Continuous
 62
     7
370
    25
100
AcDbCircle
 10
218.7878688849
 20
154.7526010425
 30
0.0
 40
0.5000000000000204
100
AcDbArc
 50
287.4568223179
 51
0.0
  0
ARC
  5
12D
330
1F
100
AcDbEntity
  8
0
  6
Continuous
 62
     7
370
    25
100
AcDbCircle
 10
227.981767833
 20
144.4103444723
 30
0.0
 40
0.5000000000000241
100
AcDbArc
 50
225.0
 51
324.0810633802
  0
ARC
  5
12E
330
1F
100
AcDbEntity
  8
0
  6
Continuous
 62
     7
370
    25
100
AcDbCircle
 10
224.7212006902
 20
152.2949345387
 30
0.0
 40
0.5000000000000213
100
AcDbArc
 50
135.0
 51
207.5431776821
  0
SPLINE
  5
12F
330
1F
100
AcDbEntity
  8
0
  6
Continuous
 62
     7
370
    25
100
AcDbSpline
210
0.0
220
0.0
230
1.0
 70
     8
 71
     3
 72
     9
 73
     5
 74
     0
 42
0.00000001
 43
0.00000001
 40
0.4234937628519639
 40
0.4234937628519639
 40
0.4234937628519639
 40
0.4234937628519639
 40
0.4374999999999998
 40
0.4515062371480356
 40
0.4515062371480356
 40
0.4515062371480356
 40
0.4515062371480356
 10
224.2778693847103
 20
152.0637260751963
 30
0.0
 10
224.3389112329203
 20
151.9466812151231
 30
0.0
 10
224.4507103977934
 20
151.7072284895849
 30
0.0
 10
224.5409750961823
 20
151.4588558959706
 30
0.0
 10
224.5805752056376
 20
151.3329295769043
 30
0.0
  0
ARC
  5
130
330
1F
100
AcDbEntity
  8
0
  6
Continuous
 62
     7
370
    25
100
AcDbCircle
 10
225.0575468504
 20
151.4829230769
 30
0.0
 40
0.5
100
AcDbArc
 50
197.4568223179
 51
270.0
  0
ARC
  5
131
330
1F
100
AcDbEntity
  8
0
  6
Continuous
 62
     7
370
    25
100
AcDbCircle
 10
221.7878688849
 20
162.3925541639
 30
0.0
 40
0.5000000000000143
100
AcDbArc
 50
180.0
 51
263.1097494796
  0
SPLINE
  5
132
330
1F
100
AcDbEntity
  8
0
  6
Continuous
 62
     7
370
    25
100
AcDbSpline
210
0.0
220
0.0
230
1.0
 70
     8
 71
     3
 72
    11
 73
     7
 74
     0
 42
0.00000001
 43
0.00000001
 40
0.2691449877449413
 40
0.2691449877449413
 40
0.2691449877449413
 40
0.2691449877449413
 40
0.28125
 40
0.3125
 40
0.34375
 40
0.3558550122550584
 40
0.3558550122550584
 40
0.3558550122550584
 40
0.3558550122550584
 10
221.7278849303762
 20
161.8961652788728
 30
0.0
 10
222.0299205014368
 20
161.8596671047677
 30
0.0
 10
223.1067150736624
 20
161.6878646381378
 30
0.0
 10
224.9096722920863
 20
161.140943545243
 30
0.0
 10
226.5712871809829
 20
160.2527918834661
 30
0.0
 10
227.4541786141271
 20
159.612865828679
 30
0.0
 10
227.6935581209943
 20
159.4251025346332
 30
0.0
  0
SPLINE
  5
133
330
1F
100
AcDbEntity
  8
0
  6
Continuous
 62
     7
370
    25
100
AcDbSpline
210
0.0
220
0.0
230
1.0
 70
     8
 71
     3
 72
    11
 73
     7
 74
     0
 42
0.00000001
 43
0.00000001
 40
0.3941449877449411
 40
0.3941449877449411
 40
0.3941449877449411
 40
0.3941449877449411
 40
0.4062500000000001
 40
0.4375
 40
0.4687499999999999
 40
0.4808550122550587
 40
0.4808550122550587
 40
0.4808550122550587
 40
0.4808550122550587
 10
229.7300483425818
 20
157.3886123130457
 30
0.0
 10
229.9178116366276
 20
157.1492328061786
 30
0.0
 10
230.5577376914147
 20
156.2663413730344
 30
0.0
 10
231.4458893531916
 20
154.6047264841377
 30
0.0
 10
231.9928104460864
 20
152.8017692657138
 30
0.0
 10
232.1646129127163
 20
151.7249746934882
 30
0.0
 10
232.2011110868214
 20
151.4229391224276
 30
0.0
  0
ARC
  5
134
330
1F
100
AcDbEntity
  8
0
  6
Continuous
 62
     7
370
    25
100
AcDbCircle
 10
232.6974999719
 20
151.4829230769
 30
0.0
 40
0.5
100
AcDbArc
 50
186.8902505204
 51
270.0
  0
ARC
  5
135
330
1F
100
AcDbEntity
  8
0
  6
Continuous
 62
     7
370
    25
100
AcDbCircle
 10
210.4522744194
 20
157.6971971988
 30
0.0
 40
0.5000000000000241
100
AcDbArc
 50
321.8902505204
 51
45.0
  0
SPLINE
  5
136
330
1F
100
AcDbEntity
  8
0
  6
Continuous
 62
     7
370
    25
100
AcDbSpline
210
0.0
220
0.0
230
1.0
 70
     8
 71
     3
 72
    11
 73
     7
 74
     0
 42
0.00000001
 43
0.00000001
 40
0.0191449877449413
 40
0.0191449877449413
 40
0.0191449877449413
 40
0.0191449877449413
 40
0.03125
 40
0.0625
 40
0.09375
 40
0.105855012255059
 40
0.105855012255059
 40
0.105855012255059
 40
0.105855012255059
 10
208.3746266829217
 20
151.4229391224276
 30
0.0
 10
208.4111248570269
 20
151.7249746934882
 30
0.0
 10
208.5829273236567
 20
152.8017692657138
 30
0.0
 10
209.1298484165515
 20
154.6047264841377
 30
0.0
 10
210.0180000783284
 20
156.2663413730344
 30
0.0
 10
210.6579261331155
 20
157.1492328061786
 30
0.0
 10
210.8456894271613
 20
157.3886123130457
 30
0.0
  0
SPLINE
  5
137
330
1F
100
AcDbEntity
  8
0
  6
Continuous
 62
     7
370
    25
100
AcDbSpline
210
0.0
220
0.0
230
1.0
 70
     8
 71
     3
 72
    11
 73
     7
 74
     0
 42
0.00000001
 43
0.00000001
 40
0.7752348282784117
 40
0.7752348282784117
 40
0.7752348282784117
 40
0.7752348282784117
 40
0.7812499999999999
 40
0.8124999999999999
 40
0.8437499999999998
 40
0.8497651717215878
 40
0.8497651717215878
 40
0.8497651717215878
 40
0.8497651717215878
 10
218.708953028834
 20
140.1083738243797
 30
0.0
 10
218.584551087146
 20
140.1282576188026
 30
0.0
 10
217.8161875849138
 20
140.266008398713
 30
0.0
 10
216.4363660455259
 20
140.6845726866563
 30
0.0
 10
215.1647152318303
 20
141.3642842076175
 30
0.0
 10
214.5239956783973
 20
141.8101947398738
 30
0.0
 10
214.4219702559648
 20
141.884100230562
 30
0.0
  0
ARC
  5
138
330
1F
100
AcDbEntity
  8
0
  6
Continuous
 62
     7
370
    25
100
AcDbCircle
 10
218.7878688849
 20
140.6021068369
 30
0.0
 40
0.5000000000000094
100
AcDbArc
 50
260.9189366198
 51
0.0
  0
SPLINE
  5
139
330
1F
100
AcDbEntity
  8
0
  6
Continuous
 62
     7
370
    25
100
AcDbSpline
210
0.0
220
0.0
230
1.0
 70
     8
 71
     3
 72
    11
 73
     7
 74
     0
 42
0.00000001
 43
0.00000001
 40
0.5252348282784117
 40
0.5252348282784117
 40
0.5252348282784117
 40
0.5252348282784117
 40
0.5312499999999999
 40
0.5624999999999999
 40
0.5937499999999998
 40
0.5997651717215883
 40
0.5997651717215883
 40
0.5997651717215883
 40
0.5997651717215883
 10
230.1624181374148
 20
148.4040072208854
 30
0.0
 10
230.1425343429919
 20
148.2796052791974
 30
0.0
 10
230.0047835630815
 20
147.5112417769652
 30
0.0
 10
229.5862192751383
 20
146.1314202375773
 30
0.0
 10
228.906507754177
 20
144.8597694238817
 30
0.0
 10
228.4605972219208
 20
144.2190498704487
 30
0.0
 10
228.3866917312326
 20
144.1170244480162
 30
0.0
  0
ARC
  5
13A
330
1F
100
AcDbEntity
  8
0
  6
Continuous
 62
     7
370
    25
100
AcDbCircle
 10
229.6686851249
 20
148.4829230769
 30
0.0
 40
0.5000000000000284
100
AcDbArc
 50
350.9189366198
 51
90.0
  0
SPLINE
  5
13B
330
1F
100
AcDbEntity
  8
0
  6
Continuous
 62
     7
370
    25
100
AcDbSpline
210
0.0
220
0.0
230
1.0
 70
     8
 71
     3
 72
     9
 73
     5
 74
     0
 42
0.00000001
 43
0.00000001
 40
0.7984937628519644
 40
0.7984937628519644
 40
0.7984937628519644
 40
0.7984937628519644
 40
0.8125000000000001
 40
0.8265062371480356
 40
0.8265062371480356
 40
0.8265062371480356
 40
0.8265062371480356
 10
218.9378623848902
 20
145.6902167561569
 30
0.0
 10
218.811936065824
 20
145.7298168656122
 30
0.0
 10
218.5635634722096
 20
145.8200815640011
 30
0.0
 10
218.3241107466715
 20
145.9318807288742
 30
0.0
 10
218.2070658865983
 20
145.9929225770842
 30
0.0
  0
ARC
  5
13C
330
1F
100
AcDbEntity
  8
0
  6
Continuous
 62
     7
370
    25
100
AcDbCircle
 10
217.9758574231
 20
145.5495912716
 30
0.0
 40
0.5000000000000241
100
AcDbArc
 50
62.4568223179
 51
135.0
  0
SPLINE
  5
13D
330
1F
100
AcDbEntity
  8
0
  6
Continuous
 62
     7
370
    25
100
AcDbSpline
210
0.0
220
0.0
230
1.0
 70
     8
 71
     3
 72
    11
 73
     7
 74
     0
 42
0.00000001
 43
0.00000001
 40
0.5191449877449414
 40
0.5191449877449414
 40
0.5191449877449414
 40
0.5191449877449414
 40
0.5312500000000001
 40
0.5625
 40
0.59375
 40
0.605855012255059
 40
0.605855012255059
 40
0.605855012255059
 40
0.605855012255059
 10
232.2011110868214
 20
148.5429070314183
 30
0.0
 10
232.1646129127163
 20
148.2408714603578
 30
0.0
 10
231.9928104460864
 20
147.1640768881321
 30
0.0
 10
231.4458893531916
 20
145.3611196697082
 30
0.0
 10
230.5577376914147
 20
143.6995047808116
 30
0.0
 10
229.9178116366276
 20
142.8166133476674
 30
0.0
 10
229.7300483425818
 20
142.5772338408002
 30
0.0
  0
ARC
  5
13E
330
1F
100
AcDbEntity
  8
0
  6
Continuous
 62
     7
370
    25
100
AcDbCircle
 10
230.1234633503
 20
142.2686489551
 30
0.0
 40
0.5000000000000442
100
AcDbArc
 50
141.8902505204
 51
225.0
  0
ARC
  5
13F
330
1F
100
AcDbEntity
  8
0
  6
Continuous
 62
     7
370
    25
100
AcDbCircle
 10
215.5181909193
 20
148.4829230769
 30
0.0
 40
0.5000000000000284
100
AcDbArc
 50
17.4568223179
 51
90.0
  0
SPLINE
  5
140
330
1F
100
AcDbEntity
  8
0
  6
Continuous
 62
     7
370
    25
100
AcDbSpline
210
0.0
220
0.0
230
1.0
 70
     8
 71
     3
 72
    11
 73
     7
 74
     0
 42
0.00000001
 43
0.00000001
 40
0.4002348282784114
 40
0.4002348282784114
 40
0.4002348282784114
 40
0.4002348282784114
 40
0.4062499999999999
 40
0.4374999999999999
 40
0.4687499999999999
 40
0.4747651717215881
 40
0.4747651717215881
 40
0.4747651717215881
 40
0.4747651717215881
 10
228.3866917312326
 20
155.8488217058297
 30
0.0
 10
228.4605972219208
 20
155.7467962833972
 30
0.0
 10
228.906507754177
 20
155.1060767299642
 30
0.0
 10
229.5862192751383
 20
153.8344259162686
 30
0.0
 10
230.0047835630815
 20
152.4546043768807
 30
0.0
 10
230.1425343429919
 20
151.6862408746485
 30
0.0
 10
230.1624181374148
 20
151.5618389329605
 30
0.0
  0
ARC
  5
141
330
1F
100
AcDbEntity
  8
0
  6
Continuous
 62
     7
370
    25
100
AcDbCircle
 10
229.6686851249
 20
151.4829230769
 30
0.0
 40
0.5000000000000284
100
AcDbArc
 50
270.0
 51
9.0810633802
  0
ARC
  5
142
330
1F
100
AcDbEntity
  8
0
  6
Continuous
 62
     7
370
    25
100
AcDbCircle
 10
221.7878688849
 20
145.2132451113
 30
0.0
 40
0.5000000000000119
100
AcDbArc
 50
107.4568223179
 51
180.0
  0
ARC
  5
143
330
1F
100
AcDbEntity
  8
0
  6
Continuous
 62
     7
370
    25
100
AcDbCircle
 10
215.8545370796
 20
147.6709116152
 30
0.0
 40
0.5000000000000213
100
AcDbArc
 50
315.0
 51
27.5431776821
  0
SPLINE
  5
144
330
1F
100
AcDbEntity
  8
0
  6
Continuous
 62
     7
370
    25
100
AcDbSpline
210
0.0
220
0.0
230
1.0
 70
     8
 71
     3
 72
     9
 73
     5
 74
     0
 42
0.00000001
 43
0.00000001
 40
0.9234937628519643
 40
0.9234937628519643
 40
0.9234937628519643
 40
0.9234937628519643
 40
0.9374999999999999
 40
0.9515062371480358
 40
0.9515062371480358
 40
0.9515062371480358
 40
0.9515062371480358
 10
216.2978683850328
 20
147.9021200786497
 30
0.0
 10
216.2368265368228
 20
148.0191649387229
 30
0.0
 10
216.1250273719498
 20
148.258617664261
 30
0.0
 10
216.0347626735608
 20
148.5069902578754
 30
0.0
 10
215.9951625641055
 20
148.6329165769416
 30
0.0
  0
ARC
  5
145
330
1F
100
AcDbEntity
  8
0
  6
Continuous
 62
     7
370
    25
100
AcDbCircle
 10
222.5998803466
 20
145.5495912716
 30
0.0
 40
0.500000000000004
100
AcDbArc
 50
45.0
 51
117.5431776821
  0
SPLINE
  5
146
330
1F
100
AcDbEntity
  8
0
  6
Continuous
 62
     7
370
    25
100
AcDbSpline
210
0.0
220
0.0
230
1.0
 70
     8
 71
     3
 72
     9
 73
     5
 74
     0
 42
0.00000001
 43
0.00000001
 40
0.6734937628519645
 40
0.6734937628519645
 40
0.6734937628519645
 40
0.6734937628519645
 40
0.6874999999999998
 40
0.7015062371480357
 40
0.7015062371480357
 40
0.7015062371480357
 40
0.7015062371480357
 10
222.3686718831448
 20
145.9929225770842
 30
0.0
 10
222.2516270230716
 20
145.9318807288742
 30
0.0
 10
222.0121742975335
 20
145.8200815640011
 30
0.0
 10
221.7638017039191
 20
145.7298168656122
 30
0.0
 10
221.6378753848529
 20
145.6902167561569
 30
0.0
  0
ARC
  5
147
330
1F
100
AcDbEntity
  8
0
  6
Continuous
 62
     7
370
    25
100
AcDbCircle
 10
221.7878688849
 20
154.7526010425
 30
0.0
 40
0.5000000000000033
100
AcDbArc
 50
180.0
 51
252.5431776821
  0
SPLINE
  5
148
330
1F
100
AcDbEntity
  8
0
  6
Continuous
 62
     7
370
    25
100
AcDbSpline
210
0.0
220
0.0
230
1.0
 70
     8
 71
     3
 72
     9
 73
     5
 74
     0
 42
0.00000001
 43
0.00000001
 40
0.2984937628519643
 40
0.2984937628519643
 40
0.2984937628519643
 40
0.2984937628519643
 40
0.3124999999999999
 40
0.3265062371480352
 40
0.3265062371480352
 40
0.3265062371480352
 40
0.3265062371480352
 10
221.637875384853
 20
154.275629397689
 30
0.0
 10
221.7638017039191
 20
154.2360292882337
 30
0.0
 10
222.0121742975335
 20
154.1457645898448
 30
0.0
 10
222.2516270230716
 20
154.0339654249717
 30
0.0
 10
222.3686718831448
 20
153.9729235767618
 30
0.0
  0
ARC
  5
149
330
1F
100
AcDbEntity
  8
0
  6
Continuous
 62
     7
370
    25
100
AcDbCircle
 10
222.5998803466
 20
154.4162548822
 30
0.0
 40
0.500000000000004
100
AcDbArc
 50
242.4568223179
 51
315.0
  0
MTEXT
  5
14B
330
1F
100
AcDbEntity
  8
0
  6
Continuous
 62
     7
370
     0
100
AcDbMText
 10
299.2269035312
 20
149.1176438494
 30
0.0
 40
3.5
 41
0.0
 71
     2
 72
     1
  1
DOWN  180  R 1
  7
SLDTEXTSTYLE0
 11
-3.491481338843133E-15
 21
1.0
 31
0.0
 73
     1
 44
1.0
  0
MTEXT
  5
14D
330
1F
100
AcDbEntity
  8
0
  6
Continuous
 62
     7
370
     0
100
AcDbMText
 10
166.3074240855
 20
192.0170612807
 30
0.0
 40
3.5
 41
0.0
 71
     2
 72
     1
  1
UP  90  R 2
  7
SLDTEXTSTYLE1
 73
     1
 44
1.0
  0
MTEXT
  5
14E
330
1F
100
AcDbEntity
  8
0
  6
Continuous
 62
     7
370
     0
100
AcDbMText
 10
272.7322020463
 20
192.0170612807
 30
0.0
 40
3.5
 41
0.0
 71
     2
 72
     1
  1
UP  90  R 2
  7
SLDTEXTSTYLE1
 73
     1
 44
1.0
  0
MTEXT
  5
150
330
1F
100
AcDbEntity
  8
0
  6
Continuous
 62
     7
370
     0
100
AcDbMText
 10
219.4578347332
 20
57.9458367105
 30
0.0
 40
3.5
 41
0.0
 71
     2
 72
     1
  1
DOWN  90  R 2
  7
SLDTEXTSTYLE2
 73
     1
 44
1.0
  0
MTEXT
  5
151
330
1F
100
AcDbEntity
  8
0
  6
Continuous
 62
     7
370
     0
100
AcDbMText
 10
219.4578347332
 20
251.0830036517
 30
0.0
 40
3.5
 41
0.0
 71
     2
 72
     1
  1
DOWN  90  R 2
  7
SLDTEXTSTYLE2
 73
     1
 44
1.0
  0
MTEXT
  5
152
330
1F
100
AcDbEntity
  8
0
  6
Continuous
 62
     7
370
     0
100
AcDbMText
 10
219.5198130659
 20
114.5416755744
 30
0.0
 40
3.5
 41
0.0
 71
     2
 72
     1
  1
UP  90  R 2
  7
SLDTEXTSTYLE1
 73
     1
 44
1.0
  0
MTEXT
  5
153
330
1F
100
AcDbEntity
  8
0
  6
Continuous
 62
     7
370
     0
100
AcDbMText
 10
191.016727407
 20
149.2148672579
 30
0.0
 40
3.5
 41
0.0
 71
     2
 72
     1
  1
UP  90  R 2
  7
SLDTEXTSTYLE1
 11
-3.491481338843133E-15
 21
1.0
 31
0.0
 73
     1
 44
1.0
  0
MTEXT
  5
154
330
1F
100
AcDbEntity
  8
0
  6
Continuous
 62
     7
370
     0
100
AcDbMText
 10
240.7291163874
 20
149.2148672579
 30
0.0
 40
3.5
 41
0.0
 71
     2
 72
     1
  1
UP  90  R 2
  7
SLDTEXTSTYLE1
 11
-3.491481338843133E-15
 21
1.0
 31
0.0
 73
     1
 44
1.0
  0
MTEXT
  5
155
330
1F
100
AcDbEntity
  8
0
  6
Continuous
 62
     7
370
     0
100
AcDbMText
 10
219.5198130659
 20
194.3706146713
 30
0.0
 40
3.5
 41
0.0
 71
     2
 72
     1
  1
UP  90  R 2
  7
SLDTEXTSTYLE1
 73
     1
 44
1.0
  0
INSERT
  5
161
330
1F
100
AcDbEntity
  8
0
  6
Continuous
 62
     7
370
     0
100
AcDbBlockReference
  2
SW_CENTERMARKSYMBOL_0
 10
220.2878688849
 20
46.5581451162
 30
0.0
  0
INSERT
  5
16D
330
1F
100
AcDbEntity
  8
0
  6
Continuous
 62
     7
370
     0
100
AcDbBlockReference
  2
SW_CENTERMARKSYMBOL_1
 10
220.2878688849
 20
253.4077010377
 30
0.0
  0
ENDSEC
  0
SECTION
  2
OBJECTS
  0
DICTIONARY
  5
C
330
0
100
AcDbDictionary
281
     1
  3
ACAD_GROUP
350
D
  3
ACAD_LAYOUT
350
1A
  3
ACAD_MLINESTYLE
350
17
  3
ACAD_PLOTSETTINGS
350
19
  3
ACAD_PLOTSTYLENAME
350
E
  3
ACAD_SCALELIST
350
47
  3
DWGPROPS
350
16E
  0
DICTIONARY
  5
D
102
{ACAD_REACTORS
330
C
102
}
330
C
100
AcDbDictionary
281
     1
  0
DICTIONARY
  5
1A
102
{ACAD_REACTORS
330
C
102
}
330
C
100
AcDbDictionary
281
     1
  3
Layout1
350
1E
  3
Layout2
350
26
  3
Model
350
22
  0
DICTIONARY
  5
17
102
{ACAD_REACTORS
330
C
102
}
330
C
100
AcDbDictionary
281
     1
  3
Standard
350
18
  0
DICTIONARY
  5
19
102
{ACAD_REACTORS
330
C
102
}
330
C
100
AcDbDictionary
281
     1
  0
ACDBDICTIONARYWDFLT
  5
E
102
{ACAD_REACTORS
330
C
102
}
330
C
100
AcDbDictionary
281
     1
  3
Normal
350
F
100
AcDbDictionaryWithDefault
340
F
  0
DICTIONARY
  5
47
102
{ACAD_REACTORS
330
C
102
}
330
C
100
AcDbDictionary
281
     1
  3
A0
350
48
  3
A1
350
49
  3
A2
350
4A
  3
A3
350
4B
  3
A4
350
4C
  3
A5
350
4D
  3
A6
350
4E
  3
A7
350
4F
  3
A8
350
50
  3
A9
350
51
  3
B0
350
52
  3
B1
350
53
  3
B2
350
54
  3
B3
350
55
  3
B4
350
56
  3
B5
350
57
  3
B6
350
58
  0
XRECORD
  5
16E
102
{ACAD_REACTORS
330
C
102
}
330
C
100
AcDbXrecord
280
     1
  1
DWGPROPS COOKIE
  2

  3

  4

  6

  7

  8
Edgelab
  9

300
=
301
=
302
=
303
=
304
=
305
=
306
=
307
=
308
=
309
=
 40
0.0
 41
2460693.750394502
 42
2460693.750394954
  1

 90
        0
  0
LAYOUT
  5
1E
102
{ACAD_REACTORS
330
1A
102
}
330
1A
100
AcDbPlotSettings
  1

  2
none_device
  4

  6

 40
0.0
 41
0.0
 42
0.0
 43
0.0
 44
0.0
 45
0.0
 46
0.0
 47
0.0
 48
0.0
 49
0.0
140
0.0
141
0.0
142
1.0
143
1.0
 70
   688
 72
     1
 73
     0
 74
     5
  7

 75
    16
147
1.0
148
0.0
149
0.0
100
AcDbLayout
  1
Layout1
 70
     1
 71
     1
 10
0.0
 20
0.0
 11
420.0
 21
297.0
 12
0.0
 22
0.0
 32
0.0
 14
1.0000000000E+20
 24
1.0000000000E+20
 34
1.0000000000E+20
 15
-1.0000000000E+20
 25
-1.0000000000E+20
 35
-1.0000000000E+20
146
0.0
 13
0.0
 23
0.0
 33
0.0
 16
1.0
 26
0.0
 36
0.0
 17
0.0
 27
1.0
 37
0.0
 76
     0
330
1B
  0
LAYOUT
  5
26
102
{ACAD_REACTORS
330
1A
102
}
330
1A
100
AcDbPlotSettings
  1

  2
none_device
  4

  6

 40
0.0
 41
0.0
 42
0.0
 43
0.0
 44
0.0
 45
0.0
 46
0.0
 47
0.0
 48
0.0
 49
0.0
140
0.0
141
0.0
142
1.0
143
1.0
 70
   688
 72
     1
 73
     0
 74
     5
  7

 75
    16
147
1.0
148
0.0
149
0.0
100
AcDbLayout
  1
Layout2
 70
     1
 71
     2
 10
0.0
 20
0.0
 11
0.0
 21
0.0
 12
0.0
 22
0.0
 32
0.0
 14
0.0
 24
0.0
 34
0.0
 15
0.0
 25
0.0
 35
0.0
146
0.0
 13
0.0
 23
0.0
 33
0.0
 16
1.0
 26
0.0
 36
0.0
 17
0.0
 27
1.0
 37
0.0
 76
     0
330
23
  0
LAYOUT
  5
22
102
{ACAD_REACTORS
330
1A
102
}
330
1A
100
AcDbPlotSettings
  1

  2
none_device
  4
Letter_(8.50_x_11.00_Inches)
  6

 40
6.35
 41
6.35
 42
6.35000508
 43
6.35000508
 44
215.9
 45
279.4
 46
0.0
 47
0.0
 48
0.0
 49
0.0
140
0.0
141
0.0
142
1.0
143
1.0
 70
  1712
 72
     1
 73
     0
 74
     0
  7

 75
     0
147
1.0
148
0.0
149
0.0
100
AcDbLayout
  1
Model
 70
     1
 71
     0
 10
0.0
 20
0.0
 11
420.0
 21
297.0
 12
0.0
 22
0.0
 32
0.0
 14
0.0
 24
0.0
 34
0.0
 15
420.0
 25
297.0
 35
0.0
146
0.0
 13
0.0
 23
0.0
 33
0.0
 16
1.0
 26
0.0
 36
0.0
 17
0.0
 27
1.0
 37
0.0
 76
     0
330
1F
331
29
  0
MLINESTYLE
  5
18
102
{ACAD_REACTORS
330
17
102
}
330
17
100
AcDbMlineStyle
  2
Standard
 70
     0
  3

 62
   256
 51
90.0
 52
90.0
 71
     2
 49
0.5
 62
   256
  6
BYLAYER
 49
-0.5
 62
   256
  6
BYLAYER
  0
ACDBPLACEHOLDER
  5
F
102
{ACAD_REACTORS
330
E
102
}
330
E
  0
SCALE
  5
48
102
{ACAD_REACTORS
330
47
102
}
330
47
100
AcDbScale
 70
     0
300
1:1
140
1.0
141
1.0
290
     1
  0
SCALE
  5
49
102
{ACAD_REACTORS
330
47
102
}
330
47
100
AcDbScale
 70
     0
300
1:2
140
1.0
141
2.0
290
     0
  0
SCALE
  5
4A
102
{ACAD_REACTORS
330
47
102
}
330
47
100
AcDbScale
 70
     0
300
1:4
140
1.0
141
4.0
290
     0
  0
SCALE
  5
4B
102
{ACAD_REACTORS
330
47
102
}
330
47
100
AcDbScale
 70
     0
300
1:5
140
1.0
141
5.0
290
     0
  0
SCALE
  5
4C
102
{ACAD_REACTORS
330
47
102
}
330
47
100
AcDbScale
 70
     0
300
1:8
140
1.0
141
8.0
290
     0
  0
SCALE
  5
4D
102
{ACAD_REACTORS
330
47
102
}
330
47
100
AcDbScale
 70
     0
300
1:10
140
1.0
141
10.0
290
     0
  0
SCALE
  5
4E
102
{ACAD_REACTORS
330
47
102
}
330
47
100
AcDbScale
 70
     0
300
1:16
140
1.0
141
16.0
290
     0
  0
SCALE
  5
4F
102
{ACAD_REACTORS
330
47
102
}
330
47
100
AcDbScale
 70
     0
300
1:20
140
1.0
141
20.0
290
     0
  0
SCALE
  5
50
102
{ACAD_REACTORS
330
47
102
}
330
47
100
AcDbScale
 70
     0
300
1:30
140
1.0
141
30.0
290
     0
  0
SCALE
  5
51
102
{ACAD_REACTORS
330
47
102
}
330
47
100
AcDbScale
 70
     0
300
1:40
140
1.0
141
40.0
290
     0
  0
SCALE
  5
52
102
{ACAD_REACTORS
330
47
102
}
330
47
100
AcDbScale
 70
     0
300
1:50
140
1.0
141
50.0
290
     0
  0
SCALE
  5
53
102
{ACAD_REACTORS
330
47
102
}
330
47
100
AcDbScale
 70
     0
300
1:100
140
1.0
141
100.0
290
     0
  0
SCALE
  5
54
102
{ACAD_REACTORS
330
47
102
}
330
47
100
AcDbScale
 70
     0
300
2:1
140
2.0
141
1.0
290
     0
  0
SCALE
  5
55
102
{ACAD_REACTORS
330
47
102
}
330
47
100
AcDbScale
 70
     0
300
4:1
140
4.0
141
1.0
290
     0
  0
SCALE
  5
56
102
{ACAD_REACTORS
330
47
102
}
330
47
100
AcDbScale
 70
     0
300
8:1
140
8.0
141
1.0
290
     0
  0
SCALE
  5
57
102
{ACAD_REACTORS
330
47
102
}
330
47
100
AcDbScale
 70
     0
300
10:1
140
10.0
141
1.0
290
     0
  0
SCALE
  5
58
102
{ACAD_REACTORS
330
47
102
}
330
47
100
AcDbScale
 70
     0
300
100:1
140
100.0
141
1.0
290
     0
  0
ENDSEC
  0
EOF
